<svg id="Layer_1" data-name="Layer 1" xmlns="http://www.w3.org/2000/svg" viewBox="0 0 56.64 60.52"><defs><style>.cls-1{fill:none;stroke:#736357;stroke-miterlimit:10;stroke-width:8px;}.cls-2{fill:#999;}</style></defs><path class="cls-1" d="M48.52,21c0,9.12-6.74,8.51-15.86,8.51S15.48,30.12,15.48,21a16.52,16.52,0,0,1,33,0Z" transform="translate(-3.68 -0.48)"/><path class="cls-2" d="M51.18,24.14H12.82a9.14,9.14,0,0,0-9.14,9.14v26A1.68,1.68,0,0,0,5.36,61H58.64a1.68,1.68,0,0,0,1.68-1.68v-26A9.14,9.14,0,0,0,51.18,24.14ZM35,45.13v6a3,3,0,0,1-5.92,0v-6a5.93,5.93,0,1,1,5.92,0Z" transform="translate(-3.68 -0.48)"/></svg>