<?xml version="1.0" encoding="utf-8"?>
<!-- Generator: Adobe Illustrator 24.2.3, SVG Export Plug-In . SVG Version: 6.00 Build 0)  -->
<svg version="1.1" id="Layer_1" xmlns="http://www.w3.org/2000/svg" xmlns:xlink="http://www.w3.org/1999/xlink" x="0px" y="0px"
	 viewBox="0 0 141.2 144.2" style="enable-background:new 0 0 141.2 144.2;" xml:space="preserve">
<style type="text/css">
	.st0{stroke:#000000;stroke-width:3;stroke-miterlimit:10;}
	.st1{fill:#FFFFFF;stroke:#000000;stroke-width:3;stroke-miterlimit:10;}
</style>
<g id="Layer_2_1_">
	<g id="Store">
		<g id="Skin_1">
			<path class="st0" d="M111.2,5H28C12.5,5,0,17.5,0,33v83.1c0,15.5,12.5,28,28,28h83.1c15.5,0,28-12.5,28-28V33
				C139.1,17.6,126.6,5,111.2,5z M131.2,108.2c0,15.5-12.5,28-28,28H36c-15.5,0-28-12.5-28-28V41c0-15.5,12.5-28,28-28h67.2
				c15.5,0,28,12.5,28,28c0,0,0,0,0,0L131.2,108.2z"/>
			<path class="st1" d="M113.2,0H30C14.5,0,2,12.5,2,28v83.1c0,15.5,12.5,28,28,28h83.1c15.5,0,28-12.5,28-28V28
				C141.1,12.6,128.6,0,113.2,0z M133.2,103.2c0,15.5-12.5,28-28,28H38c-15.5,0-28-12.5-28-28V36C10,20.5,22.5,8,38,8h67.2
				c15.5,0,28,12.5,28,28c0,0,0,0,0,0L133.2,103.2z"/>
		</g>
	</g>
</g>
</svg>
