<svg xmlns="http://www.w3.org/2000/svg" viewBox="0 0 117.41 167.36"><defs><style>.cls-1,.cls-2{stroke:#000;stroke-miterlimit:10;stroke-width:4px;opacity:0.98;isolation:isolate;}.cls-2{fill:gray;}</style></defs><g id="Layer_2" data-name="Layer 2"><g id="Stages"><g id="Stage1"><path class="cls-1" d="M54.12,11A42.09,42.09,0,0,0,13.05,53.17V71.1H2v61H2c0,.44,0,.89,0,1.33,0,17.71,13,32,29.09,32H79.3c16.12,0,29.11-14.25,29.11-32,0-.44,0-.89,0-1.33h0v-61h-11V53.17A42.06,42.06,0,0,0,55.22,11Zm-.19,12.3h.84C68.12,23,81.25,32.87,84,46c.47,8.37.73,16.73.88,25.11H25.66c0-4,0-8-.12-12C22.16,42,36.46,23.71,53.93,23.3Zm1.23,70.1a12.26,12.26,0,0,1,1.9.15,12.53,12.53,0,0,1,6.19,22l4.38,27.49H42.78l4.37-27.49a12.54,12.54,0,0,1,8-22.17Z"/><path class="cls-2" d="M61.12,2A42.09,42.09,0,0,0,20.05,44.17V62.1H9v61H9c0,.44,0,.89,0,1.33,0,17.71,13,32,29.09,32H86.3c16.12,0,29.11-14.25,29.11-32,0-.44,0-.89,0-1.33h0v-61h-11V44.17A42.06,42.06,0,0,0,62.22,2C61.86,2,61.48,2,61.12,2Zm-.19,12.3h.84C75.12,14,88.25,23.87,91,37c.47,8.37.73,16.73.88,25.11H32.66c0-4,0-8-.12-12C29.16,33,43.46,14.71,60.93,14.3Zm1.23,70.1a12.26,12.26,0,0,1,1.9.15,12.53,12.53,0,0,1,6.19,22l4.38,27.49H49.78l4.37-27.49a12.54,12.54,0,0,1,8-22.17Z"/></g></g></g></svg>