<svg xmlns="http://www.w3.org/2000/svg" viewBox="0 0 566.63 563.85"><defs><style>.cls-1{fill:#0fb6d1;}.cls-2{fill:#fff;}.cls-3{fill:aqua;}</style></defs><g id="Layer_2" data-name="Layer 2"><g id="Settings"><rect class="cls-1" x="15.02" y="27.37" width="520.38" height="520.38"/><path class="cls-1" d="M536.67,549c-40.92,2.61-83.18,4.71-125.94,6.71s-86.29,3.65-130.16,5l-16.45.5-16.51.42-33.08.8q-33.14.72-66.41,1.09c-44.33.57-88.85.49-133.1-.75l-.8,0A14.59,14.59,0,0,1,0,547.75C1.1,504.38,3.25,461,5.09,417.65s3.52-86.73,4.14-130.09q.48-32.52.35-65.05l-.05-16.26L9.38,190c-.07-10.84-.24-21.68-.42-32.53s-.44-21.68-.65-32.52L7.43,92.42c-.63-21.68-1.51-43.37-2.27-65a9.51,9.51,0,0,1,9.17-9.83l.69,0,65.05-2.47,32.52-1.17,32.52-1c43.37-1.27,86.73-1.85,130.1-2.53S361.94,9,405.3,8.51,492,7.86,535.4,8.13h.23a19.12,19.12,0,0,1,19,19.24c-.26,44.5-1,89-2,133.37s-2.41,88.51-4,132.26-3.49,87.11-5.49,129.85S539,507.82,536.67,549Zm-2.55-2.55c-2.32-45.52-4.35-90-6.38-134s-3.86-87.36-5.48-130.33-3-85.56-4-127.93-1.79-84.59-2.05-126.82L535.4,46.61q-65.06.41-130.1-.38c-43.36-.44-86.73-1.18-130.09-1.85s-86.73-1.26-130.1-2.52l-32.52-1L80.07,39.69,15,37.23l9.85-9.86c-.75,21.68-1.63,43.37-2.26,65.05l-.89,32.52c-.21,10.84-.5,21.68-.64,32.52s-.35,21.69-.42,32.53l-.15,16.26-.05,16.26q-.15,32.52.35,65.05C21.42,330.92,23,374.29,25,417.65s4,86.73,5.08,130.1l-15-15c42.47-1.24,84.69-1.31,127.09-.75q31.78.42,63.68,1.09l32,.8,16,.42,16.06.51c42.87,1.31,86.11,3,130,5S488.31,543.86,534.12,546.47Z"/><rect class="cls-2" x="27.02" y="19.37" width="520.38" height="520.38"/><path class="cls-3" d="M548.67,541c-40.92,2.61-83.18,4.71-125.94,6.71s-86.29,3.65-130.16,5l-16.45.5-16.51.42-33.08.8q-33.14.72-66.41,1.09c-44.33.57-88.85.49-133.1-.75l-.8,0a14.59,14.59,0,0,1-14.21-15c1.09-43.37,3.24-86.73,5.08-130.1s3.52-86.73,4.14-130.09q.48-32.52.35-65.05l0-16.26L21.38,182c-.07-10.84-.24-21.68-.42-32.53s-.44-21.68-.65-32.52l-.88-32.52c-.63-21.68-1.51-43.37-2.27-65a9.51,9.51,0,0,1,9.17-9.83l.69,0L92.07,7.05l32.52-1.17,32.52-1C200.48,3.62,243.84,3,287.21,2.36S373.94,1,417.3.51,504-.14,547.4.13h.23a19.12,19.12,0,0,1,19,19.24c-.26,44.5-1,89-2,133.37s-2.41,88.51-4,132.26-3.49,87.11-5.49,129.85S551,499.82,548.67,541Zm-2.55-2.55c-2.32-45.52-4.35-90-6.38-134s-3.86-87.36-5.48-130.33-3-85.56-4-127.93-1.79-84.59-2.05-126.82L547.4,38.61q-65.06.41-130.1-.38c-43.36-.44-86.73-1.18-130.09-1.85s-86.73-1.26-130.1-2.52l-32.52-1L92.07,31.69,27,29.23l9.85-9.86c-.75,21.68-1.63,43.37-2.26,65.05l-.89,32.52c-.21,10.84-.5,21.68-.64,32.52s-.35,21.69-.42,32.53l-.15,16.26,0,16.26q-.15,32.52.35,65.05C33.42,322.92,35,366.29,37,409.65s4,86.73,5.08,130.1l-15-15c42.47-1.24,84.69-1.31,127.09-.75q31.78.42,63.68,1.09l32,.8,16,.42,16.06.51c42.87,1.31,86.11,3,130,5S500.31,535.86,546.12,538.47Z"/><path d="M108.12,114H97.52V94.88H78.09V114H67.52V67.08H78.09V85.79H97.52V67.08h10.6Z"/><path d="M138.68,114.81q-10.08,0-16.43-6.56t-6.34-17.1q0-11.12,6.44-18t17.08-6.87q10,0,16.24,6.58t6.2,17.33q0,11.07-6.43,17.83T138.68,114.81Zm.45-39.43a10.65,10.65,0,0,0-8.83,4.18Q127,83.73,127,90.6t3.27,11a10.47,10.47,0,0,0,8.57,4.06,10.59,10.59,0,0,0,8.67-3.94q3.21-3.94,3.21-10.95,0-7.29-3.11-11.35A10.15,10.15,0,0,0,139.13,75.38Z"/><path d="M231,67.08,218.63,114H206.92l-7.79-30.1a25.62,25.62,0,0,1-.75-5.27h-.13a32.41,32.41,0,0,1-.85,5.27l-8,30.1H177.21L164.88,67.08h11.55L183,98.32a37.74,37.74,0,0,1,.62,5.36h.19a26.39,26.39,0,0,1,1-5.49l8.51-31.11h11.32l7.69,31.5a39.57,39.57,0,0,1,.75,5h.13a34.23,34.23,0,0,1,.69-5.24l6.47-31.3Z"/><path d="M288.28,75.68H274.9V114H264.3V75.68H251v-8.6h37.29Z"/><path d="M311.93,114.81q-10.06,0-16.42-6.56t-6.35-17.1q0-11.12,6.45-18t17.08-6.87q10,0,16.24,6.58t6.2,17.33q0,11.07-6.43,17.83T311.93,114.81Zm.46-39.43a10.64,10.64,0,0,0-8.83,4.18q-3.27,4.17-3.27,11t3.27,11a10.47,10.47,0,0,0,8.57,4.06,10.59,10.59,0,0,0,8.67-3.94Q324,97.8,324,90.79q0-7.29-3.1-11.35A10.15,10.15,0,0,0,312.39,75.38Z"/><path d="M371.83,97.83V114H361.27V67.08h16.55q17.73,0,17.73,15a14.34,14.34,0,0,1-5.08,11.43q-5.1,4.37-13.6,4.37Zm0-22.64V89.81H376q8.44,0,8.44-7.39,0-7.23-8.44-7.23Z"/><path d="M430.36,114H402.42V67.08H413v38.34h17.37Z"/><path d="M479.4,114H467.89l-3.34-10.44H447.87L444.56,114H433.11l17.08-46.91h12.53ZM462.13,95.44l-5-15.77a21.05,21.05,0,0,1-.79-4.22H456a18.29,18.29,0,0,1-.81,4.09l-5.11,15.9Z"/><path d="M515.58,67.08,500.31,97.3V114H489.74V97.5L474.85,67.08h12.08l7.55,17.5c.13.32.49,1.6,1.08,3.83h.13a16.76,16.76,0,0,1,1-3.7l7.68-17.63Z"/><path d="M76.38,183.56h5a4.13,4.13,0,0,0,4.51,3.76q3.8,0,5.34-1.62c1-1.09,1.54-4.12,1.54-9.11V150.37h5.66v26q0,8.5-2.74,12.28t-9.77,3.78A9.38,9.38,0,0,1,79.22,190,9.23,9.23,0,0,1,76.38,183.56Z"/><path d="M111.55,161.52v19.35q0,7,6.09,7a8.35,8.35,0,0,0,4.87-1.53,7.35,7.35,0,0,0,2.92-3.54v-21.3h5.38v30.34h-5.38v-4.2a8.41,8.41,0,0,1-3.64,3.27,11,11,0,0,1-5.34,1.49c-3.32,0-5.87-.95-7.63-2.86s-2.65-4.61-2.65-8.13V161.52Z"/><path d="M136.16,190l1.9-5.09q4.5,2.94,7.25,2.94,5,0,5-4.19,0-3-4.81-5.16a40.58,40.58,0,0,1-5-2.57,11.35,11.35,0,0,1-2.24-2,7.88,7.88,0,0,1-1.41-2.38,7.74,7.74,0,0,1-.47-2.7,7,7,0,0,1,2.72-5.84,11.36,11.36,0,0,1,7.11-2.09,22.94,22.94,0,0,1,8.35,2.09L153,168a10.28,10.28,0,0,0-6.43-2.55,5.55,5.55,0,0,0-3.24.91,2.68,2.68,0,0,0-1.32,2.29c0,1.94,1.11,3.42,3.32,4.42l3.85,1.75a13.59,13.59,0,0,1,5.15,3.68,8.16,8.16,0,0,1,1.62,5.19,7.75,7.75,0,0,1-2.86,6.38q-2.86,2.31-7.93,2.31A18,18,0,0,1,136.16,190Z"/><path d="M163.55,165.77H160v-4.25h3.51v-6.34l5.38-2.07v8.41h8.32v4.25h-8.32v15.07q0,3.82,1.29,5.44a5,5,0,0,0,4.15,1.61,9.93,9.93,0,0,0,4.27-1l.8,4.73a29.64,29.64,0,0,1-7.34.85,8,8,0,0,1-6.07-2.67,9.54,9.54,0,0,1-2.48-6.76Z"/><path d="M225,164l-2.66,3.79a8.06,8.06,0,0,0-2.9-1.55,12,12,0,0,0-4.09-.74,8.62,8.62,0,0,0-7,3.07q-2.58,3.08-2.58,8.43t2.64,8.11a9.55,9.55,0,0,0,7.3,2.79,12,12,0,0,0,7.31-2.8l2.12,4.53a19.32,19.32,0,0,1-10.73,2.8,13.72,13.72,0,0,1-10.25-4.16q-4-4.17-4-11.27,0-7.26,4.2-11.64T215.83,161a15.09,15.09,0,0,1,5.09,1A14.19,14.19,0,0,1,225,164Z"/><path d="M231.23,183.27V149.09h5.38v33.28a5.19,5.19,0,0,0,1.41,3.84,5,5,0,0,0,3.66,1.4v4.81Q231.24,192.42,231.23,183.27Z"/><path d="M250.52,191.86v-25.8h-4.16v-4.54h9.54v30.34Zm2.94-41.81a3.23,3.23,0,0,1,2.37,1,3.31,3.31,0,0,1,0,4.7,3.23,3.23,0,0,1-2.37,1,3.19,3.19,0,0,1-2.33-1,3.22,3.22,0,0,1-1-2.36,3.19,3.19,0,0,1,1-2.35A3.23,3.23,0,0,1,253.46,150.05Z"/><path d="M287.34,164l-2.67,3.79a8,8,0,0,0-2.9-1.55,12,12,0,0,0-4.09-.74,8.62,8.62,0,0,0-7,3.07q-2.58,3.08-2.58,8.43t2.64,8.11a9.55,9.55,0,0,0,7.31,2.79,12,12,0,0,0,7.3-2.8l2.13,4.53a19.37,19.37,0,0,1-10.74,2.8,13.72,13.72,0,0,1-10.25-4.16q-4-4.17-4-11.27,0-7.26,4.21-11.64T278.19,161a15.15,15.15,0,0,1,5.1,1A14.47,14.47,0,0,1,287.34,164Z"/><path d="M312.77,191.86l-9.52-15.18-4.7,4.84v10.34h-5.38V149.09h5.38v26.54l11.61-14.11h6.29l-9.71,11.53,11.86,18.81Z"/><path d="M337.92,176.62q0-7,3.78-11.34a12.59,12.59,0,0,1,9.95-4.32q6.51,0,10.11,4.15t3.6,11.51q0,7.33-3.68,11.57a12.62,12.62,0,0,1-10,4.23q-6.48,0-10.11-4.27T337.92,176.62Zm5.66,0q0,11.41,8.07,11.41a6.83,6.83,0,0,0,5.91-3.06q2.13-3.06,2.13-8.35,0-11.28-8-11.27a6.94,6.94,0,0,0-5.88,3Q343.58,171.35,343.58,176.62Z"/><path d="M389.69,191.86V174.21q0-4.85-1.46-6.78c-1-1.29-2.6-1.94-4.89-1.94a8.06,8.06,0,0,0-3.85,1.1,8.7,8.7,0,0,0-3.09,2.72v22.55H371V161.52h3.68l1.7,3.91q2.67-4.47,8.7-4.47,10,0,10,12.12v18.78Z"/><path d="M422.11,165.77H418.6v-4.25h3.51v-6.34l5.38-2.07v8.41h8.33v4.25h-8.33v15.07q0,3.82,1.29,5.44a5,5,0,0,0,4.15,1.61,10,10,0,0,0,4.28-1l.79,4.73a29.55,29.55,0,0,1-7.33.85,8,8,0,0,1-6.08-2.67,9.59,9.59,0,0,1-2.48-6.76Z"/><path d="M461.87,191.86V172.8a8,8,0,0,0-1.67-5.36,5.85,5.85,0,0,0-4.7-1.95,7.68,7.68,0,0,0-3.92,1.15,9.13,9.13,0,0,0-3,2.67v22.55h-5.38V149.09h5.38v15.78a8,8,0,0,1,3.47-2.79A11.52,11.52,0,0,1,457,161a9.45,9.45,0,0,1,7.55,3.17q2.73,3.17,2.73,8.67v19.06Z"/><path d="M500.42,177.21H478.55c0,3.55,1,6.28,2.92,8.19a9.15,9.15,0,0,0,6.63,2.49,11.31,11.31,0,0,0,7.7-2.69l2.27,3.88a10.1,10.1,0,0,1-3.83,2.15,20.5,20.5,0,0,1-7.19,1.19,13.4,13.4,0,0,1-9.71-3.88q-4.45-4.28-4.45-11.5,0-7.5,4.56-12a13.25,13.25,0,0,1,9.66-4q6.48,0,10.16,3.65a12.49,12.49,0,0,1,3.57,9.32A12.12,12.12,0,0,1,500.42,177.21Zm-13.06-11.72a8.49,8.49,0,0,0-8.66,7.82h16.79a7.64,7.64,0,0,0-2-5.44A7.94,7.94,0,0,0,487.36,165.49Z"/><path d="M74.41,259.64l1.9-5.09q4.5,2.94,7.25,2.94,5,0,5-4.19,0-3-4.81-5.16a39.82,39.82,0,0,1-5-2.57,11.08,11.08,0,0,1-2.24-2,7.88,7.88,0,0,1-1.41-2.38,7.52,7.52,0,0,1-.47-2.7,7,7,0,0,1,2.72-5.84,11.36,11.36,0,0,1,7.11-2.09,23,23,0,0,1,8.35,2.09l-1.53,5a10.3,10.3,0,0,0-6.43-2.55,5.55,5.55,0,0,0-3.24.91,2.68,2.68,0,0,0-1.32,2.29c0,1.94,1.11,3.42,3.32,4.42l3.85,1.75a13.59,13.59,0,0,1,5.15,3.68,8.16,8.16,0,0,1,1.62,5.19,7.75,7.75,0,0,1-2.86,6.38c-1.91,1.54-4.56,2.31-7.93,2.31A18,18,0,0,1,74.41,259.64Z"/><path d="M122.75,233.59l-2.66,3.79a8.06,8.06,0,0,0-2.9-1.55,12,12,0,0,0-4.09-.74,8.62,8.62,0,0,0-7,3.07q-2.58,3.08-2.58,8.43t2.64,8.11a9.55,9.55,0,0,0,7.3,2.79,12.07,12.07,0,0,0,7.31-2.8l2.12,4.53a19.34,19.34,0,0,1-10.73,2.8,13.7,13.7,0,0,1-10.25-4.16q-4.05-4.17-4-11.27,0-7.26,4.2-11.64t11.51-4.39a15.1,15.1,0,0,1,5.1,1A14.47,14.47,0,0,1,122.75,233.59Z"/><path d="M145.07,236.31a6.18,6.18,0,0,0-3.54-1.22,6.32,6.32,0,0,0-5,2.63,9.73,9.73,0,0,0-2.14,6.35v17.39H129V231.12h5.38V236q3-5.41,8.75-5.41a24.53,24.53,0,0,1,4.17.51Z"/><path d="M176.67,246.81H154.81q0,5.33,2.92,8.19a9.13,9.13,0,0,0,6.62,2.49,11.34,11.34,0,0,0,7.71-2.69l2.26,3.88a10,10,0,0,1-3.82,2.15,20.5,20.5,0,0,1-7.19,1.19,13.42,13.42,0,0,1-9.72-3.88q-4.44-4.27-4.44-11.5,0-7.5,4.56-12a13.23,13.23,0,0,1,9.65-4.05q6.49,0,10.17,3.65a12.49,12.49,0,0,1,3.57,9.32A11.73,11.73,0,0,1,176.67,246.81Zm-13-11.72a8.51,8.51,0,0,0-8.67,7.82h16.8a7.64,7.64,0,0,0-2-5.44A7.94,7.94,0,0,0,163.62,235.09Z"/><path d="M208.31,246.81H186.44c0,3.55,1,6.28,2.92,8.19a9.15,9.15,0,0,0,6.63,2.49,11.31,11.31,0,0,0,7.7-2.69l2.27,3.88a10.1,10.1,0,0,1-3.83,2.15,20.5,20.5,0,0,1-7.19,1.19,13.4,13.4,0,0,1-9.71-3.88q-4.46-4.27-4.45-11.5,0-7.5,4.56-12a13.25,13.25,0,0,1,9.66-4.05q6.48,0,10.16,3.65a12.49,12.49,0,0,1,3.57,9.32A12.12,12.12,0,0,1,208.31,246.81Zm-13.06-11.72a8.49,8.49,0,0,0-8.66,7.82h16.79a7.64,7.64,0,0,0-2-5.44A7.94,7.94,0,0,0,195.25,235.09Z"/><path d="M233.06,261.46V243.81q0-4.84-1.46-6.78t-4.88-1.94a8.12,8.12,0,0,0-3.86,1.1,8.66,8.66,0,0,0-3.08,2.72v22.55H214.4V231.12h3.68l1.7,3.91q2.66-4.47,8.69-4.47,10,0,10,12.12v18.78Z"/><path d="M280.69,258q-3.22,4-9.88,4a8.5,8.5,0,0,1-6.19-2.59A8.72,8.72,0,0,1,262,253a9.61,9.61,0,0,1,4-7.8A16.07,16.07,0,0,1,276.33,242a11.87,11.87,0,0,1,3.86.74q0-7.37-6.58-7.37c-3.36,0-5.94.91-7.76,2.72l-2.26-4.5a13.22,13.22,0,0,1,4.23-2.14,16.68,16.68,0,0,1,5.17-.89q6.6,0,9.59,3t3,9.54V254c0,2.66.79,4.44,2.37,5.32V262a10.17,10.17,0,0,1-4.91-.93A5.31,5.31,0,0,1,280.69,258Zm-.5-11.41a19.37,19.37,0,0,0-3.57-.57,10.21,10.21,0,0,0-6.66,2.1,6.23,6.23,0,0,0-2.58,4.95c0,3.16,1.86,4.73,5.58,4.73q4.08,0,7.23-3.88Z"/><path d="M312.7,261.46V243.81q0-4.84-1.46-6.78t-4.89-1.94a8.09,8.09,0,0,0-3.85,1.1,8.58,8.58,0,0,0-3.08,2.72v22.55H294V231.12h3.69l1.7,3.91q2.65-4.47,8.69-4.47,10,0,10,12.12v18.78Z"/><path d="M345,261.43v-2.24c-1.87,1.87-4.58,2.8-8.15,2.8a11.65,11.65,0,0,1-9.23-4.07Q324,253.84,324,247a17.44,17.44,0,0,1,4.07-11.65,12.35,12.35,0,0,1,9.72-4.83c3.13,0,5.51.73,7.13,2.21V218.69h5.38v42.74Zm0-23.28a6.36,6.36,0,0,0-5.58-3.06,8.66,8.66,0,0,0-7,3.23,12.4,12.4,0,0,0-2.68,8.21q0,11,10,11a7.67,7.67,0,0,0,3.06-.81A4.39,4.39,0,0,0,345,255Z"/><path d="M372.2,273.35v-4.81c3.7,0,6.23-.57,7.6-1.69s2.06-3,2.06-5.54V235.66h-6v-4.54h11.42V261.2q0,6.26-3.69,9.2T372.2,273.35Zm11.61-53.7a3.22,3.22,0,0,1,2.36,1,3.31,3.31,0,0,1,0,4.7,3.22,3.22,0,0,1-2.36,1,3.17,3.17,0,0,1-2.35-1,3.25,3.25,0,0,1-1-2.36,3.29,3.29,0,0,1,3.31-3.32Z"/><path d="M401.88,231.12v19.35q0,7,6.09,7a8.37,8.37,0,0,0,4.87-1.53,7.33,7.33,0,0,0,2.91-3.54v-21.3h5.39v30.34h-5.39v-4.2a8.39,8.39,0,0,1-3.63,3.28,11.19,11.19,0,0,1-5.34,1.48c-3.33,0-5.87-.95-7.64-2.86s-2.64-4.61-2.64-8.13V231.12Z"/><path d="M463.59,261.46V242.25q0-7.16-6.2-7.16a6.23,6.23,0,0,0-3.66,1.2,6.44,6.44,0,0,0-2.32,2.74v22.43H446V239.9a4.18,4.18,0,0,0-1.69-3.52,7.14,7.14,0,0,0-4.46-1.29,6.14,6.14,0,0,0-3.44,1.25,7.66,7.66,0,0,0-2.59,2.74v22.38h-5.38V231.12H432l1.79,3.52a9.43,9.43,0,0,1,7.78-4.08q6.52,0,9.12,4.05a7,7,0,0,1,3.37-2.89,11.88,11.88,0,0,1,5.07-1.16,9.41,9.41,0,0,1,7.28,2.79q2.58,2.79,2.58,7.83v20.28Z"/><path d="M482,259.78v13.57h-5.38V231.12H482v2.5a10.06,10.06,0,0,1,7.39-3.06q6.45,0,10.05,4t3.6,11.78q0,6.91-3.63,11.29T488.93,262a13.79,13.79,0,0,1-4.12-.68A5.36,5.36,0,0,1,482,259.78Zm0-22.11v17.67a4.84,4.84,0,0,0,2.15,1.46,8.21,8.21,0,0,0,3.2.69q10,0,10-11.33,0-5.74-2.37-8.41t-7.62-2.66a6.66,6.66,0,0,0-2.78.79A9.19,9.19,0,0,0,482,237.67Z"/><path d="M110.94,315.82q0-7,3.78-11.34a12.59,12.59,0,0,1,10-4.32q6.51,0,10.11,4.15t3.6,11.51q0,7.33-3.69,11.57a12.59,12.59,0,0,1-10,4.23q-6.5,0-10.11-4.27T110.94,315.82Zm5.67,0q0,11.42,8.07,11.41a6.8,6.8,0,0,0,5.9-3.06q2.14-3.06,2.14-8.35,0-11.28-8-11.27a6.92,6.92,0,0,0-5.88,3Q116.61,310.55,116.61,315.82Z"/><path d="M155,331.62h-1.42l-13-31h5.89l8,21.24,8.19-21.24h5.63Z"/><path d="M198,316.41H176.14q0,5.32,2.91,8.19a9.15,9.15,0,0,0,6.63,2.49,11.29,11.29,0,0,0,7.7-2.69l2.27,3.88a10.13,10.13,0,0,1-3.82,2.15,20.79,20.79,0,0,1-7.2,1.19,13.4,13.4,0,0,1-9.71-3.88q-4.46-4.28-4.45-11.5,0-7.5,4.56-12a13.25,13.25,0,0,1,9.66-4q6.48,0,10.17,3.65a12.52,12.52,0,0,1,3.56,9.32A12.12,12.12,0,0,1,198,316.41Zm-13.06-11.72a8.49,8.49,0,0,0-8.66,7.82h16.79a7.64,7.64,0,0,0-2-5.44A7.94,7.94,0,0,0,184.94,304.69Z"/><path d="M220.57,305.91a6.18,6.18,0,0,0-3.54-1.22,6.32,6.32,0,0,0-5,2.63,9.79,9.79,0,0,0-2.14,6.35v17.39h-5.38V300.72h5.38v4.85q3-5.42,8.75-5.41a24.42,24.42,0,0,1,4.17.51Z"/><path d="M242.12,329.24l1.9-5.1q4.5,3,7.25,2.95,5,0,5-4.19,0-3-4.81-5.16a40.58,40.58,0,0,1-5-2.57,11.35,11.35,0,0,1-2.24-2,7.88,7.88,0,0,1-1.41-2.38,7.74,7.74,0,0,1-.47-2.7,7,7,0,0,1,2.72-5.84,11.36,11.36,0,0,1,7.11-2.09,22.94,22.94,0,0,1,8.35,2.09l-1.53,5a10.28,10.28,0,0,0-6.43-2.55,5.55,5.55,0,0,0-3.24.91,2.68,2.68,0,0,0-1.32,2.29c0,1.94,1.11,3.42,3.32,4.42l3.85,1.75a13.59,13.59,0,0,1,5.15,3.68,8.16,8.16,0,0,1,1.62,5.19,7.76,7.76,0,0,1-2.86,6.38q-2.87,2.31-7.93,2.31A18,18,0,0,1,242.12,329.24Z"/><path d="M273,329.38V343h-5.38V300.72H273v2.5a10.08,10.08,0,0,1,7.39-3.06q6.47,0,10.06,4T294,316q0,6.92-3.62,11.29t-10.48,4.37a14.07,14.07,0,0,1-4.12-.68A5.45,5.45,0,0,1,273,329.38Zm0-22.11v17.67a4.88,4.88,0,0,0,2.16,1.46,8.21,8.21,0,0,0,3.2.69q10,0,10-11.33,0-5.75-2.38-8.41t-7.62-2.66a6.62,6.62,0,0,0-2.77.79A9.11,9.11,0,0,0,273,307.27Z"/><path d="M302.5,331.06v-25.8h-4.16v-4.54h9.54v30.34Zm2.95-41.81a3.31,3.31,0,1,1-2.35,1A3.22,3.22,0,0,1,305.45,289.25Z"/><path d="M336,331.06l-9.51-15.18-4.7,4.84v10.34h-5.38V288.29h5.38v26.54l11.61-14.11h6.28L330,312.25l11.87,18.81Z"/><path d="M371.24,316.41H349.37q0,5.32,2.92,8.19a9.15,9.15,0,0,0,6.63,2.49,11.33,11.33,0,0,0,7.7-2.69l2.26,3.88a10,10,0,0,1-3.82,2.15,20.73,20.73,0,0,1-7.19,1.19,13.42,13.42,0,0,1-9.72-3.88q-4.44-4.28-4.44-11.5,0-7.5,4.56-12a13.25,13.25,0,0,1,9.65-4q6.49,0,10.17,3.65a12.49,12.49,0,0,1,3.57,9.32A12.12,12.12,0,0,1,371.24,316.41Zm-13.06-11.72a8.51,8.51,0,0,0-8.67,7.82h16.8a7.64,7.64,0,0,0-2-5.44A7.94,7.94,0,0,0,358.18,304.69Z"/><path d="M375.34,329.24l1.9-5.1q4.5,3,7.25,2.95,5,0,5-4.19,0-3-4.81-5.16a40.58,40.58,0,0,1-5-2.57,11.35,11.35,0,0,1-2.24-2,7.88,7.88,0,0,1-1.41-2.38,7.74,7.74,0,0,1-.47-2.7,7,7,0,0,1,2.72-5.84,11.36,11.36,0,0,1,7.11-2.09,22.94,22.94,0,0,1,8.35,2.09l-1.53,5a10.28,10.28,0,0,0-6.43-2.55,5.55,5.55,0,0,0-3.24.91,2.68,2.68,0,0,0-1.32,2.29c0,1.94,1.11,3.42,3.32,4.42l3.85,1.75a13.59,13.59,0,0,1,5.15,3.68,8.16,8.16,0,0,1,1.62,5.19,7.76,7.76,0,0,1-2.86,6.38q-2.86,2.31-7.93,2.31A18,18,0,0,1,375.34,329.24Z"/><path d="M420.2,305h-3.51v-4.25h3.51v-6.34l5.38-2.07v8.41h8.33V305h-8.33V320q0,3.82,1.29,5.44a5,5,0,0,0,4.15,1.61,10,10,0,0,0,4.28-1l.79,4.73a29.58,29.58,0,0,1-7.34.85,8,8,0,0,1-6.07-2.67,9.59,9.59,0,0,1-2.48-6.76Z"/><path d="M439.29,315.82q0-7,3.78-11.34a12.59,12.59,0,0,1,9.95-4.32q6.53,0,10.11,4.15t3.6,11.51q0,7.33-3.68,11.57a12.61,12.61,0,0,1-10,4.23q-6.48,0-10.11-4.27T439.29,315.82Zm5.66,0q0,11.42,8.07,11.41a6.82,6.82,0,0,0,5.91-3.06c1.42-2,2.14-4.82,2.14-8.35q0-11.28-8.05-11.27a6.91,6.91,0,0,0-5.87,3Q444.95,310.55,445,315.82Z"/><path d="M66.78,399v13.57H61.4V370.32h5.38v2.5a10.06,10.06,0,0,1,7.39-3.06q6.45,0,10,4t3.6,11.78q0,6.92-3.63,11.29c-2.41,2.91-5.91,4.37-10.47,4.37a14,14,0,0,1-4.12-.68A5.36,5.36,0,0,1,66.78,399Zm0-22.11v17.67A4.84,4.84,0,0,0,68.93,396a8.21,8.21,0,0,0,3.2.69q10,0,10-11.33c0-3.83-.8-6.63-2.38-8.41s-4.13-2.66-7.62-2.66a6.66,6.66,0,0,0-2.78.79A9.19,9.19,0,0,0,66.78,376.87Z"/><path d="M110.84,397.17q-3.23,4.05-9.88,4.05a8.5,8.5,0,0,1-6.19-2.59,8.72,8.72,0,0,1-2.62-6.44,9.61,9.61,0,0,1,4-7.8,16.07,16.07,0,0,1,10.29-3.19,11.76,11.76,0,0,1,3.85.74q0-7.37-6.57-7.37c-3.36,0-5.94.91-7.76,2.72l-2.26-4.5A13.22,13.22,0,0,1,98,370.65a16.63,16.63,0,0,1,5.17-.89q6.6,0,9.59,3t3,9.54v10.88c0,2.66.8,4.44,2.38,5.32v2.69a10.17,10.17,0,0,1-4.91-.93A5.27,5.27,0,0,1,110.84,397.17Zm-.51-11.41a19.3,19.3,0,0,0-3.56-.57,10.21,10.21,0,0,0-6.66,2.1,6.23,6.23,0,0,0-2.58,4.95c0,3.16,1.86,4.73,5.58,4.73q4.08,0,7.22-3.88Z"/><path d="M122.2,398.84l1.9-5.1q4.5,3,7.25,2.95,5,0,5-4.19,0-3-4.81-5.16a39.82,39.82,0,0,1-5-2.57,11.08,11.08,0,0,1-2.24-2,7.88,7.88,0,0,1-1.41-2.38,7.52,7.52,0,0,1-.47-2.7,7,7,0,0,1,2.72-5.84,11.36,11.36,0,0,1,7.11-2.09,23,23,0,0,1,8.35,2.09l-1.53,5a10.3,10.3,0,0,0-6.43-2.55,5.55,5.55,0,0,0-3.24.91,2.68,2.68,0,0,0-1.32,2.29c0,1.94,1.11,3.42,3.32,4.42l3.85,1.75a13.59,13.59,0,0,1,5.15,3.68,8.16,8.16,0,0,1,1.62,5.19,7.76,7.76,0,0,1-2.86,6.38q-2.87,2.31-7.93,2.31A18,18,0,0,1,122.2,398.84Z"/><path d="M145.68,398.84l1.9-5.1c3,2,5.41,2.95,7.25,2.95q5,0,5-4.19c0-2-1.61-3.72-4.81-5.16a39.82,39.82,0,0,1-5-2.57,11.08,11.08,0,0,1-2.24-2,7.91,7.91,0,0,1-1.42-2.38,7.73,7.73,0,0,1-.46-2.7,7,7,0,0,1,2.71-5.84,11.4,11.4,0,0,1,7.11-2.09,23,23,0,0,1,8.36,2.09l-1.53,5a10.32,10.32,0,0,0-6.43-2.55,5.52,5.52,0,0,0-3.24.91,2.68,2.68,0,0,0-1.32,2.29c0,1.94,1.1,3.42,3.31,4.42l3.86,1.75a13.75,13.75,0,0,1,5.15,3.68,8.16,8.16,0,0,1,1.61,5.19,7.73,7.73,0,0,1-2.86,6.38c-1.9,1.54-4.55,2.31-7.93,2.31A18,18,0,0,1,145.68,398.84Z"/><path d="M205.75,397.17q-3.24,4.05-9.89,4.05a8.5,8.5,0,0,1-6.19-2.59,8.72,8.72,0,0,1-2.62-6.44,9.61,9.61,0,0,1,4-7.8,16.07,16.07,0,0,1,10.29-3.19,11.87,11.87,0,0,1,3.86.74c0-4.91-2.2-7.37-6.57-7.37-3.37,0-5.95.91-7.76,2.72l-2.27-4.5a13.22,13.22,0,0,1,4.23-2.14,16.68,16.68,0,0,1,5.17-.89q6.6,0,9.59,3t3,9.54v10.88c0,2.66.79,4.44,2.38,5.32v2.69a10.19,10.19,0,0,1-4.92-.93A5.26,5.26,0,0,1,205.75,397.17Zm-.51-11.41a19.37,19.37,0,0,0-3.57-.57,10.21,10.21,0,0,0-6.66,2.1,6.23,6.23,0,0,0-2.58,4.95c0,3.16,1.86,4.73,5.58,4.73q4.08,0,7.23-3.88Z"/><path d="M219.51,392.07V357.89h5.38v33.28a5.22,5.22,0,0,0,1.4,3.84,5,5,0,0,0,3.67,1.4v4.81Q219.51,401.22,219.51,392.07Z"/><path d="M236.61,392.07V357.89H242v33.28a5.18,5.18,0,0,0,1.4,3.84,5,5,0,0,0,3.66,1.4v4.81Q236.62,401.22,236.61,392.07Z"/><path d="M272.69,374.57h-3.51v-4.25h3.51V364l5.39-2.07v8.41h8.32v4.25h-8.32v15.07c0,2.55.42,4.36,1.28,5.44a5,5,0,0,0,4.15,1.61,9.94,9.94,0,0,0,4.28-1.05l.79,4.73a29.55,29.55,0,0,1-7.33.85,8,8,0,0,1-6.08-2.67,9.59,9.59,0,0,1-2.48-6.76Z"/><path d="M312.46,400.66V381.6a8,8,0,0,0-1.67-5.36,5.88,5.88,0,0,0-4.71-1.95,7.68,7.68,0,0,0-3.92,1.15,9,9,0,0,0-3,2.67v22.55h-5.39V357.89h5.39v15.78a7.86,7.86,0,0,1,3.47-2.79,11.46,11.46,0,0,1,4.94-1.12,9.43,9.43,0,0,1,7.54,3.17q2.75,3.17,2.74,8.67v19.06Z"/><path d="M351,386H329.14q0,5.33,2.91,8.19a9.15,9.15,0,0,0,6.63,2.49,11.29,11.29,0,0,0,7.7-2.69l2.27,3.88a10.13,10.13,0,0,1-3.82,2.15,20.56,20.56,0,0,1-7.2,1.19,13.4,13.4,0,0,1-9.71-3.88q-4.44-4.27-4.45-11.5,0-7.5,4.56-12a13.25,13.25,0,0,1,9.66-4.05q6.48,0,10.17,3.65a12.48,12.48,0,0,1,3.56,9.32A12.12,12.12,0,0,1,351,386Zm-13.06-11.72a8.49,8.49,0,0,0-8.66,7.82h16.79a7.64,7.64,0,0,0-2-5.44A7.94,7.94,0,0,0,337.94,374.29Z"/><path d="M375,392.07V357.89h5.38v33.28a5.18,5.18,0,0,0,1.4,3.84,5,5,0,0,0,3.67,1.4v4.81Q375,401.22,375,392.07Z"/><path d="M417.21,386H395.35q0,5.33,2.92,8.19a9.11,9.11,0,0,0,6.62,2.49A11.34,11.34,0,0,0,412.6,394l2.26,3.88A10,10,0,0,1,411,400a20.5,20.5,0,0,1-7.19,1.19,13.41,13.41,0,0,1-9.72-3.88q-4.44-4.27-4.44-11.5,0-7.5,4.56-12a13.21,13.21,0,0,1,9.65-4.05q6.5,0,10.17,3.65a12.49,12.49,0,0,1,3.57,9.32A11.73,11.73,0,0,1,417.21,386Zm-13-11.72a8.49,8.49,0,0,0-8.67,7.82h16.8a7.64,7.64,0,0,0-2-5.44A8,8,0,0,0,404.16,374.29Z"/><path d="M434.23,401.22h-1.41l-13-31h5.89l8,21.24,8.19-21.24h5.63Z"/><path d="M477.25,386H455.39q0,5.33,2.92,8.19a9.11,9.11,0,0,0,6.62,2.49,11.34,11.34,0,0,0,7.71-2.69l2.26,3.88a10,10,0,0,1-3.82,2.15,20.52,20.52,0,0,1-7.2,1.19,13.4,13.4,0,0,1-9.71-3.88q-4.44-4.27-4.45-11.5,0-7.5,4.56-12a13.25,13.25,0,0,1,9.66-4.05q6.48,0,10.17,3.65a12.49,12.49,0,0,1,3.57,9.32A11.73,11.73,0,0,1,477.25,386ZM464.2,374.29a8.49,8.49,0,0,0-8.67,7.82h16.79a7.67,7.67,0,0,0-2-5.44A8,8,0,0,0,464.2,374.29Z"/><path d="M483.77,392.07V357.89h5.38v33.28a5.18,5.18,0,0,0,1.4,3.84,5,5,0,0,0,3.67,1.4v4.81Q483.77,401.22,483.77,392.07Z"/><path d="M498.46,398.84l1.9-5.1q4.5,3,7.25,2.95c3.32,0,5-1.4,5-4.19q0-3-4.82-5.16a40.58,40.58,0,0,1-5-2.57,11.35,11.35,0,0,1-2.24-2,7.88,7.88,0,0,1-1.41-2.38,7.74,7.74,0,0,1-.47-2.7,7,7,0,0,1,2.72-5.84,11.36,11.36,0,0,1,7.11-2.09,22.94,22.94,0,0,1,8.35,2.09l-1.53,5a10.28,10.28,0,0,0-6.42-2.55,5.56,5.56,0,0,0-3.25.91,2.69,2.69,0,0,0-1.31,2.29c0,1.94,1.1,3.42,3.31,4.42l3.85,1.75a13.71,13.71,0,0,1,5.16,3.68,8.22,8.22,0,0,1,1.61,5.19,7.73,7.73,0,0,1-2.86,6.38q-2.86,2.31-7.93,2.31A18,18,0,0,1,498.46,398.84Z"/></g></g></svg>