<svg xmlns="http://www.w3.org/2000/svg" viewBox="0 0 316.91 254.91"><defs><style>.cls-1,.cls-2{fill:#fff;}.cls-2,.cls-3{stroke:#000;stroke-linejoin:round;}.cls-2{stroke-width:8px;}.cls-3{fill:none;stroke-linecap:round;stroke-width:15px;}</style></defs><g id="Layer_2" data-name="Layer 2"><g id="Settings"><g id="Sound"><g id="SoundOn"><path class="cls-1" d="M11.44,188.37A7.44,7.44,0,0,1,4,180.94V74a7.45,7.45,0,0,1,7.44-7.44H68.82V188.37Z"/><path d="M64.82,70.53V184.37H11.44A3.44,3.44,0,0,1,8,180.94V74a3.44,3.44,0,0,1,3.44-3.44H64.82m8-8H11.44A11.44,11.44,0,0,0,0,74v107a11.44,11.44,0,0,0,11.44,11.43H72.82V62.53Z"/></g><polygon class="cls-2" points="172.35 247.41 64.86 185.74 64.86 69.17 172.35 7.5 172.35 247.41"/><path class="cls-3" d="M204.57,86.26c47,41.19,0,82.39,0,82.39"/><path class="cls-3" d="M226.18,43.2c91.67,84.25,0,168.51,0,168.51"/><path class="cls-3" d="M271,7.5c86.5,120,0,239.91,0,239.91"/></g></g></g></svg>