<svg xmlns="http://www.w3.org/2000/svg" viewBox="0 0 323.59 247.91"><defs><style>.cls-1,.cls-2{fill:#fff;}.cls-2,.cls-3{stroke:#000;}.cls-2{stroke-linejoin:round;stroke-width:8px;}.cls-3{fill:none;stroke-linecap:round;stroke-miterlimit:10;stroke-width:16px;}</style></defs><g id="Layer_2" data-name="Layer 2"><g id="Settings"><g id="Sound"><g id="SoundOn"><path class="cls-1" d="M11.44,184.87A7.44,7.44,0,0,1,4,177.44v-107A7.45,7.45,0,0,1,11.44,63H68.82V184.87Z"/><path d="M64.82,67V180.87H11.44A3.44,3.44,0,0,1,8,177.44v-107A3.44,3.44,0,0,1,11.44,67H64.82m8-8H11.44A11.44,11.44,0,0,0,0,70.47v107a11.44,11.44,0,0,0,11.44,11.43H72.82V59Z"/></g><polygon class="cls-2" points="172.35 243.91 64.86 182.24 64.86 65.67 172.35 4 172.35 243.91"/><line class="cls-3" x1="204.57" y1="178.71" x2="314.84" y2="68.45"/><line class="cls-3" x1="205.32" y1="69.19" x2="315.59" y2="179.46"/></g></g></g></svg>