<svg xmlns="http://www.w3.org/2000/svg" viewBox="0 0 125.29 128.29"><defs><style>.cls-1{fill:aqua;}.cls-2,.cls-3{fill:none;}.cls-2{stroke:#7a4c40;}.cls-2,.cls-3,.cls-7{stroke-linecap:round;}.cls-2,.cls-3,.cls-4,.cls-6,.cls-7{stroke-miterlimit:10;}.cls-2,.cls-7{stroke-width:4px;}.cls-3{stroke:#603813;}.cls-3,.cls-4,.cls-6{stroke-width:2px;}.cls-4{fill:#999;}.cls-4,.cls-6{stroke:#000;}.cls-5{fill:#666;}.cls-6{fill:#7c7c7c;}.cls-7{fill:#f7931e;stroke:#ccc;}.cls-8{fill:#ccc;}</style></defs><g id="Layer_2" data-name="Layer 2"><g id="Store"><g id="Bomb"><rect y="5" width="123.29" height="123.29" rx="28.04"/><rect class="cls-1" x="2" width="123.29" height="123.29" rx="28.04"/><path class="cls-2" d="M94.27,38.4a43.37,43.37,0,0,1-8.55-9.71A25.35,25.35,0,0,1,83.42,24c-.69-2-.5-2.28-1.15-3.83a10.7,10.7,0,0,0-3.44-4.85,10.56,10.56,0,0,0-5.24-1.79,9.66,9.66,0,0,0-4.85.26,5.47,5.47,0,0,0-3.44,2.55,5.06,5.06,0,0,0,0,4.09"/><path class="cls-3" d="M94.27,38.4a43.37,43.37,0,0,1-8.55-9.71A25.35,25.35,0,0,1,83.42,24c-.69-2-.5-2.28-1.15-3.83a10.7,10.7,0,0,0-3.44-4.85,10.56,10.56,0,0,0-5.24-1.79,9.66,9.66,0,0,0-4.85.26,5.47,5.47,0,0,0-3.44,2.55,5.06,5.06,0,0,0,0,4.09"/><rect class="cls-4" x="52.48" y="18.48" width="22.34" height="22.34" rx="3.89"/><path class="cls-5" d="M73.76,30.66l-8.47,2.55S49.08,32.44,60.23,31s13.53-8,13.53-8Z"/><circle class="cls-6" cx="63.65" cy="70.65" r="40.43"/><path class="cls-7" d="M45.11,40.78S47.46,37,55.37,36"/><path class="cls-8" d="M30,63.78a2.5,2.5,0,0,1-2.48-2.23c-.48-4.26,3.59-13.74,12.19-19.73a2.5,2.5,0,0,1,2.86,4.1C35,51.19,32.29,58.94,32.51,61a2.49,2.49,0,0,1-2.2,2.76Z"/><path class="cls-5" d="M95.36,47.34A39.37,39.37,0,0,1,26.69,84.25,39.37,39.37,0,1,0,95.36,47.34Z"/><circle cx="94.27" cy="38.45" r="1.96"/></g></g></g></svg>