<svg xmlns="http://www.w3.org/2000/svg" viewBox="0 0 125.29 128.29"><defs><style>.cls-1{fill:aqua;}.cls-2{fill:#ff1df6;stroke:#000;stroke-width:2px;}.cls-2,.cls-4{stroke-miterlimit:10;}.cls-3{fill:#c33;}.cls-4{fill:#f7931e;stroke:#ffa9ff;stroke-linecap:round;stroke-width:5px;}.cls-5{fill:#ffa9ff;}.cls-6{fill:#eb00c0;}</style></defs><g id="Layer_2" data-name="Layer 2"><g id="Store"><g id="Bowling"><rect y="5" width="123.29" height="123.29" rx="28.04"/><rect class="cls-1" x="2" width="123.29" height="123.29" rx="28.04"/><circle class="cls-2" cx="63.65" cy="61.65" r="40.43"/><circle class="cls-3" cx="63.83" cy="45.8" r="8.05"/><circle cx="65.83" cy="43.8" r="8.05"/><circle class="cls-3" cx="83.88" cy="37.75" r="7.28"/><circle cx="85.88" cy="35.75" r="7.28"/><circle class="cls-3" cx="83.88" cy="61.13" r="7.28"/><circle cx="85.88" cy="59.13" r="7.28"/><path class="cls-4" d="M47.26,31.4s7.68-6.68,18.07-5.7"/><path class="cls-5" d="M29.86,61.05a3.13,3.13,0,0,1-3.24-2.63C25.76,53.13,30.25,41,40.62,33a3.13,3.13,0,0,1,3.84,5C35.33,45,32.38,54.87,32.79,57.42A3.13,3.13,0,0,1,30.21,61Z"/><path class="cls-6" d="M95.37,38.39A39.36,39.36,0,0,1,26.71,75.3,39.37,39.37,0,1,0,95.37,38.39Z"/></g></g></g></svg>