<svg xmlns="http://www.w3.org/2000/svg" viewBox="0 0 125.29 128.29"><defs><style>.cls-1{fill:aqua;}.cls-2{fill:#1a1a1a;}.cls-3{fill:#e6e6e6;}.cls-4{fill:#141400;}.cls-5{fill:#fff;}.cls-6{fill:none;stroke:#000;stroke-width:2px;}.cls-6,.cls-7{stroke-miterlimit:10;}.cls-7{fill:#999;stroke:#666;stroke-linecap:round;stroke-width:4px;}.cls-8{fill:#666;}.cls-9{fill:#ccc;}</style></defs><g id="Layer_2" data-name="Layer 2"><g id="Store"><g id="Chess"><rect y="5" width="123.29" height="123.29" rx="28.04"/><rect class="cls-1" x="2" width="123.29" height="123.29" rx="28.04"/><g id="Layer_23" data-name="Layer 23"><polygon class="cls-2" points="63.65 33.65 35.65 33.65 35.65 32.48 46.54 25 56.98 22.18 63.65 20.89 63.65 33.65"/><polygon class="cls-3" points="91.64 33.65 63.65 33.65 63.65 20.77 68.72 22.07 78.51 24.38 90.78 30.64 91.53 31.09 91.64 33.65"/><polygon class="cls-4" points="35.65 61.65 23.21 61.65 28.61 41.45 35.65 33.65 35.65 61.65"/><polygon class="cls-2" points="35.65 61.65 23.21 61.65 25.15 50.84 28.61 41.45 35.65 33.65 35.65 61.65"/><rect class="cls-5" x="35.65" y="33.65" width="27.99" height="27.99"/><rect class="cls-3" x="35.65" y="33.65" width="27.99" height="27.99"/><rect class="cls-2" x="63.65" y="33.65" width="27.99" height="27.99"/><polygon class="cls-3" points="104.07 61.65 91.64 61.65 91.64 33.65 96.77 38.46 101.81 48.89 104.07 61.65"/><rect class="cls-2" x="35.65" y="61.65" width="27.99" height="27.99"/><rect class="cls-3" x="63.65" y="61.65" width="27.99" height="27.99"/><polygon class="cls-2" points="97.86 84.83 91.64 89.64 91.64 61.65 104.08 61.65 102.33 73.46 97.86 84.83"/><path class="cls-3" d="M63.65,102.08c-4.3.8-9.06-3-13.36-2.26-5,.93-8.27-7.24-13.3-6.31,0-5.88-1.34,2-1.34-3.87h28Z"/><polygon class="cls-2" points="91.18 91.94 80.33 98.91 63.65 102.83 63.65 89.64 91.64 89.64 91.18 91.94"/><line class="cls-4" x1="63.65" y1="89.64" x2="91.64" y2="89.64"/><polygon class="cls-3" points="35.65 89.64 30.09 85.34 25.27 72.83 23.22 61.65 35.65 61.65 35.65 89.64"/></g><circle class="cls-6" cx="63.65" cy="61.65" r="40.43"/><path class="cls-7" d="M45.54,31.08s2.68-5.1,12.38-5.74"/><path class="cls-8" d="M39.66,32.11c-.7.49-1.36,1-2,1.54h5.88a2.46,2.46,0,0,0-.4-.91A2.5,2.5,0,0,0,39.66,32.11Z"/><path class="cls-8" d="M35.65,35.46c-5.84,5.75-8.58,12.86-8.19,16.39A2.51,2.51,0,0,0,30,54.07h.28a2.49,2.49,0,0,0,2.2-2.76c-.13-1.24.82-4.53,3.22-8.1Z"/><path class="cls-5" d="M35.65,35.46V43.2a26.9,26.9,0,0,1,6.87-7,2.51,2.51,0,0,0,1-2.57H37.66C37,34.24,36.29,34.84,35.65,35.46Z"/><path class="cls-9" d="M103,61.65a39.51,39.51,0,0,0-7.66-23.3A39.18,39.18,0,0,1,97.8,52a39.77,39.77,0,0,1-1.2,9.7Z"/><path d="M91.64,89.37A39.22,39.22,0,0,0,103,61.66H96.6a39.39,39.39,0,0,1-5,11.44Z"/><path class="cls-9" d="M91.64,73.09A39.42,39.42,0,0,1,69.83,89.64H91.37l.27-.27Z"/><path d="M63.65,91V101h0a39.23,39.23,0,0,0,27.7-11.39H69.83A39.71,39.71,0,0,1,63.65,91Z"/><path class="cls-9" d="M63.65,101V91a40.86,40.86,0,0,1-5.22.35A39.35,39.35,0,0,1,47,89.64H36A39.24,39.24,0,0,0,63.65,101Z"/><path d="M35.65,89.31l.34.33H47A38.83,38.83,0,0,1,35.65,84Z"/><path class="cls-9" d="M35.65,89.31V84a39.36,39.36,0,0,1-8.93-8.78A39.34,39.34,0,0,0,35.65,89.31Z"/></g></g></g></svg>