<svg xmlns="http://www.w3.org/2000/svg" viewBox="0 0 125 128"><defs><style>.cls-1{fill:aqua;}.cls-2{fill:#ff0004;stroke:#fff;stroke-width:2px;}.cls-2,.cls-6{stroke-miterlimit:10;}.cls-3{fill:#70f589;}.cls-4{fill:#3f0bf5;}.cls-5{fill:#43bef5;}.cls-6,.cls-7{fill:#ff713f;}.cls-6{stroke:#ff713f;stroke-linecap:round;stroke-width:4px;}.cls-8{fill:#d10000;}.cls-9{fill:#41bf87;}</style></defs><g id="Layer_2" data-name="Layer 2"><g id="Store"><g id="CirclesInCircles"><rect y="5" width="123" height="123" rx="28.04"/><rect class="cls-1" x="2" width="123" height="123" rx="28.04"/><circle class="cls-2" cx="63.15" cy="61.01" r="40.43"/><circle class="cls-3" cx="63.5" cy="61.01" r="30.54"/><circle class="cls-4" cx="63.5" cy="61.5" r="19.52"/><circle class="cls-5" cx="63.5" cy="61.5" r="10.15"/><path class="cls-6" d="M44.85,31.44s4.42-5.27,16.37-6.89"/><path class="cls-7" d="M28.61,59.45a2.86,2.86,0,0,1-2.67-2.74c-.51-5.26,3.87-16.94,13.13-24.33a2.47,2.47,0,0,1,3.74.76,3.4,3.4,0,0,1-.66,4.3C34,43.93,31,53.49,31.29,56a3,3,0,0,1-2.38,3.41Z"/><path class="cls-8" d="M95,37.79A39.36,39.36,0,0,1,26.32,74.7,39.37,39.37,0,1,0,95,37.79Z"/><path class="cls-9" d="M58,90.76c-.54,0-1.07,0-1.6,0a31,31,0,0,0,7.07.83A30.56,30.56,0,0,0,92.63,70.2,39.35,39.35,0,0,1,58,90.76Z"/></g></g></g></svg>