<svg xmlns="http://www.w3.org/2000/svg" viewBox="0 0 125.29 128.29"><defs><style>.cls-1{fill:aqua;}.cls-2{fill:#0057b8;}.cls-2,.cls-4{stroke:#000;stroke-width:2px;}.cls-2,.cls-4,.cls-7{stroke-miterlimit:10;}.cls-3{fill:#0049ac;}.cls-4{fill:#ffd800;}.cls-5{fill:#fff;}.cls-6{fill:#ccc;}.cls-7{fill:#9b83e7;stroke:#2585cf;stroke-linecap:round;stroke-width:4px;}.cls-8{fill:#2585cf;}.cls-9{fill:#e5c200;}</style></defs><g id="Layer_2" data-name="Layer 2"><g id="Store"><g id="Flag"><rect y="5" width="123.29" height="123.29" rx="28.04"/><rect class="cls-1" x="2" width="123.29" height="123.29" rx="28.04"/><circle class="cls-2" cx="63.65" cy="61.65" r="40.43"/><path class="cls-3" d="M95.36,38.31A39.37,39.37,0,0,1,26.69,75.23,39.37,39.37,0,1,0,95.36,38.31Z"/><path class="cls-4" d="M104.08,61.65a40.44,40.44,0,0,1-80.87,0"/><path class="cls-5" d="M102.16,62.65h-77a1,1,0,1,1,0-2h77a1,1,0,0,1,0,2Z"/><path class="cls-6" d="M100.76,60.65h1.4a1,1,0,0,1,0,2H100.7"/><path class="cls-7" d="M44.54,31.09s3.74-4.22,14-6"/><path class="cls-8" d="M28.86,58a2.72,2.72,0,0,1-2.41-2.74c-.34-5.14,4-16.43,12.81-23.41a2.25,2.25,0,0,1,3.46.84A3.41,3.41,0,0,1,42,36.88C34.27,43,31.27,52.27,31.43,54.75A2.93,2.93,0,0,1,29.14,58Z"/><path class="cls-9" d="M103,61.65H96.56A39.37,39.37,0,0,1,26.69,75.23,39.38,39.38,0,0,0,103,61.65Z"/><path class="cls-6" d="M103,61.15a1,1,0,0,0-.85-.5H96.79c-.15.67-.32,1.34-.51,2h5.88a1,1,0,0,0,.84-.5c0-.18,0-.35,0-.52S103,61.31,103,61.15Z"/></g></g></g></svg>