<svg xmlns="http://www.w3.org/2000/svg" viewBox="0 0 125.29 128.29"><defs><style>.cls-1{fill:aqua;}.cls-2{fill:#e6e6e6;}.cls-3{fill:#333;}.cls-4{fill:#fff;}.cls-5{fill:#b3b3b3;}</style></defs><g id="Layer_2" data-name="Layer 2"><g id="Store"><g id="Foodball"><rect y="5" width="123.29" height="123.29" rx="28.04"/><rect class="cls-1" x="2" width="123.29" height="123.29" rx="28.04"/><polygon points="72.52 46.77 57.63 46.77 50.17 59.54 57.63 72.31 72.52 72.31 79.97 59.54 72.52 46.77"/><path class="cls-2" d="M63.65,102.12a40.48,40.48,0,1,1,40.47-40.47A40.52,40.52,0,0,1,63.65,102.12Z"/><path d="M63.65,22.17A39.48,39.48,0,1,1,24.17,61.65,39.47,39.47,0,0,1,63.65,22.17m0-2a41.48,41.48,0,1,0,41.47,41.48A41.53,41.53,0,0,0,63.65,20.17Z"/><path class="cls-3" d="M61.4,51.27l-8.14,5.91a3.8,3.8,0,0,0-1.38,4.27L55,71a3.82,3.82,0,0,0,3.63,2.64H68.68A3.82,3.82,0,0,0,72.31,71l3.11-9.57A3.82,3.82,0,0,0,74,57.18l-8.14-5.91A3.8,3.8,0,0,0,61.4,51.27Z"/><path class="cls-3" d="M100.54,58.73l2.27-2.06a39.32,39.32,0,0,0-9.06-20.56l-3.22.35A1.87,1.87,0,0,0,88.9,38l-2.64,12.6a1.89,1.89,0,0,0,.91,2L98.35,59A1.87,1.87,0,0,0,100.54,58.73Z"/><path class="cls-3" d="M51.71,24a3.83,3.83,0,0,0,1.55,3.48L61.4,33.4a3.8,3.8,0,0,0,4.49,0L74,27.49A3.81,3.81,0,0,0,75.58,24a39.63,39.63,0,0,0-23.87,0Z"/><path class="cls-3" d="M49.83,84.67a2.49,2.49,0,0,0-2.52-1.45l-12,1.26a2.47,2.47,0,0,0-2.16,1.94l-.06.28A39.49,39.49,0,0,0,52.85,99.63l1.26-1.13a2.49,2.49,0,0,0,.61-2.85Z"/><path class="cls-3" d="M77.45,84.67A2.5,2.5,0,0,1,80,83.22l12,1.26a2.45,2.45,0,0,1,2.16,1.94l.06.28A39.45,39.45,0,0,1,74.43,99.63L73.17,98.5a2.48,2.48,0,0,1-.6-2.85Z"/><path class="cls-3" d="M38.43,38a1.89,1.89,0,0,0-1.64-1.49l-3.24-.35a39.38,39.38,0,0,0-9.07,20.54l2.3,2.08A1.89,1.89,0,0,0,29,59l11.17-6.4a1.88,1.88,0,0,0,.91-2Z"/><path class="cls-4" d="M54.09,28.09a19.33,19.33,0,0,0-6.47,3.17,2,2,0,1,1-2.41-3.19,21.21,21.21,0,0,1,6.5-3.38"/><path class="cls-3" d="M51.71,24.69a3.81,3.81,0,0,0,1.55,2.8l.83.6a36.15,36.15,0,0,1,12.83-2A2,2,0,0,0,68,22.41c-1.4-.15-2.81-.23-4.24-.24A39.29,39.29,0,0,0,51.71,24.69Z"/><path class="cls-4" d="M35,36.27a34.51,34.51,0,0,1,5.66-5.07,2.7,2.7,0,0,1,3.79.69,2.78,2.78,0,0,1-.68,3.84,29.83,29.83,0,0,0-5,4.49"/><path class="cls-3" d="M38.43,38a1.89,1.89,0,0,0-1.64-1.49L35,36.27C29.36,42.54,26.46,50,26.86,53.66a2.73,2.73,0,0,0,2.7,2.45h.3a2.76,2.76,0,0,0,2.41-3.05c-.19-1.75,1.88-7.65,6.61-12.92Z"/><path class="cls-5" d="M95.49,38.63A39.37,39.37,0,0,1,26.82,75.54,39.37,39.37,0,1,0,95.49,38.63Z"/><path d="M98.35,59a1.87,1.87,0,0,0,2.19-.24l2.24-2c-.91-6.71-3-13.05-7.29-18.07a39.54,39.54,0,0,1,1.92,19.8Z"/><path d="M94.35,86.86l-.27-.44a2.45,2.45,0,0,0-2.16-1.94l-9.45-1a39.19,39.19,0,0,1-6.22,3.91l-3.68,8.26a2.48,2.48,0,0,0,.6,2.85l1.43,1.44A39.89,39.89,0,0,0,94.35,86.86Z"/><path d="M52.72,99.86l1.39-1.36a2.49,2.49,0,0,0,.61-2.85l-2-4.49a39,39,0,0,1-16.83-6.74l-.53.06a2.47,2.47,0,0,0-2.16,1.94l-.06.42c.14.17.28.35.43.52.46.54.92,1.08,1.41,1.59a1.8,1.8,0,0,0,.19.2A39.07,39.07,0,0,0,52.72,99.86Z"/></g></g></g></svg>