<svg xmlns="http://www.w3.org/2000/svg" viewBox="0 0 125.29 128.29"><defs><style>.cls-1{fill:aqua;}.cls-2{fill:#e7000a;}.cls-2,.cls-3{stroke:#fff;stroke-width:2px;}.cls-2,.cls-3,.cls-6,.cls-7{stroke-miterlimit:10;}.cls-3{fill:#ffe500;}.cls-4{fill:#d30000;}.cls-5{fill:#e7c500;}.cls-6,.cls-7{fill:red;stroke:#ff2119;stroke-linecap:round;}.cls-6{stroke-width:4px;}.cls-7{stroke-width:5px;}</style></defs><g id="Layer_2" data-name="Layer 2"><g id="Store"><g id="HanfPainted"><rect y="5" width="123.29" height="123.29" rx="28.04"/><rect class="cls-1" x="2" width="123.29" height="123.29" rx="28.04"/><circle class="cls-2" cx="63.65" cy="61.65" r="40.43"/><path class="cls-3" d="M63.65,21.21a40.44,40.44,0,0,1,0,80.87"/><path class="cls-4" d="M88.89,31.84a39.06,39.06,0,0,1-55,55,39.07,39.07,0,1,0,55-55Z"/><path class="cls-5" d="M88.89,31.84A39.06,39.06,0,0,1,63.65,95.62v5.29h.23a39.07,39.07,0,0,0,25-69.08Z"/><path class="cls-6" d="M47.22,30.56s3.43-3.91,11.34-4.93"/><path class="cls-7" d="M31.67,49.88c0-3.06,2.55-11.49,11.32-16.25"/></g></g></g></svg>