<svg xmlns="http://www.w3.org/2000/svg" viewBox="0 0 125.29 128.29"><defs><style>.cls-1{fill:aqua;}.cls-2{fill:#f2f2f2;stroke:#fff100;stroke-miterlimit:10;stroke-width:2px;}.cls-3{fill:#f7f100;}.cls-4{fill:#ffc61a;}.cls-5{fill:#e6e6e6;}.cls-6{fill:#e5e11e;}.cls-7{fill:red;}.cls-8{fill:#fff;}.cls-9{fill:#fff18f;}</style></defs><g id="Layer_2" data-name="Layer 2"><g id="Store"><g id="Lemon"><rect y="5" width="123.29" height="123.29" rx="28.04"/><rect class="cls-1" x="2" width="123.29" height="123.29" rx="28.04"/><circle class="cls-2" cx="63.65" cy="61.65" r="40.43"/><polygon class="cls-3" points="63.65 63.65 51.52 95.85 75.78 95.85 63.65 63.65"/><path class="cls-4" d="M63.65,63.67,57.72,79.94c-2,5.37-3.94,10.67-6,16l-.22-.32,12.13.1c4,0,8.08.1,12.12,0l-.09.13-3.08-8c-1-2.64-2-5.29-3-8Zm0-.05,6.18,15.95c1,2.69,2.07,5.4,3.06,8.12l3,8.12,0,.14h-.15c-4-.06-8.08,0-12.12,0l-12.13.1h-.34l.12-.32c2-5.42,4.06-10.85,6.15-16.22Z"/><polygon class="cls-3" points="63.65 59.58 75.78 27.38 51.52 27.38 63.65 59.58"/><path class="cls-4" d="M63.65,59.56l5.93-16.27c2-5.37,3.93-10.67,6-16l.22.32-12.12-.1c-4,0-8.09-.1-12.13,0l.09-.13,3.09,8c1,2.64,2,5.29,3,8Zm0,0-6.19-16q-1.56-4-3.05-8.12l-3-8.12,0-.14h.14c4,.06,8.08,0,12.13,0l12.12-.1h.35l-.12.32c-2,5.42-4.07,10.85-6.15,16.22Z"/><polygon class="cls-3" points="65.68 61.62 97.88 73.74 97.88 49.49 65.68 61.62"/><path class="cls-4" d="M65.7,61.62,82,67.54c5.37,2,10.67,3.94,16,6l-.32.22.1-12.12c0-4,.1-8.09,0-12.13l.14.09-8,3.08c-2.65,1-5.3,2-8,3Zm0,0L81.6,55.43c2.69-1,5.4-2.07,8.12-3.06l8.13-3,.13,0v.14c-.06,4,0,8.08,0,12.13l.1,12.12v.34L97.8,74C92.38,72,87,69.9,81.59,67.81Z"/><polygon class="cls-3" points="61.62 61.62 29.41 49.49 29.41 73.74 61.62 61.62"/><path class="cls-4" d="M61.59,61.62,45.32,55.69c-5.36-2-10.67-3.94-16-6l.32-.22-.1,12.13c0,4-.1,8.08,0,12.12l-.13-.09,8-3.08c2.64-1,5.3-2,8-3Zm0,0-16,6.18c-2.69,1-5.4,2.07-8.12,3.06l-8.12,3-.14,0v-.15c.06-4,0-8.08,0-12.12l-.1-12.13v-.34l.33.12c5.41,2,10.84,4.06,16.21,6.15Z"/><polygon class="cls-3" points="62.21 60.18 48.02 28.83 30.86 45.98 62.21 60.18"/><path class="cls-4" d="M62.19,60.16l-7.31-15.7c-2.41-5.17-4.76-10.32-7.08-15.53l.38.07-8.64,8.5c-2.87,2.86-5.79,5.65-8.61,8.55l0-.16,7.82,3.47c2.6,1.14,5.18,2.31,7.77,3.51Zm0,0L46.58,53.29c-2.64-1.16-5.28-2.36-7.91-3.58l-7.85-3.64L30.69,46l.1-.1c2.9-2.81,5.7-5.73,8.55-8.6l8.51-8.65.24-.24.14.31C50.65,34,53,39.27,55.35,44.55Z"/><polygon class="cls-3" points="65.08 63.05 79.28 94.4 96.43 77.25 65.08 63.05"/><path class="cls-4" d="M65.1,63.07l7.31,15.7c2.41,5.17,4.77,10.32,7.08,15.53l-.38-.07,8.65-8.5c2.86-2.86,5.78-5.65,8.6-8.55l0,.16-7.82-3.46c-2.6-1.15-5.18-2.32-7.77-3.52Zm0,0,15.65,6.91c2.63,1.16,5.28,2.36,7.9,3.58l7.85,3.64.13.06-.1.1c-2.9,2.81-5.7,5.74-8.55,8.6l-8.5,8.65-.24.24-.15-.31C76.65,89.25,74.27,84,72,78.68Z"/><polygon class="cls-3" points="65.08 60.18 96.43 45.98 79.28 28.83 65.08 60.18"/><path class="cls-4" d="M65.1,60.16l15.7-7.31c5.17-2.41,10.33-4.76,15.53-7.08l-.07.38-8.5-8.65c-2.86-2.86-5.65-5.78-8.55-8.6l.16,0L75.91,36.7c-1.14,2.6-2.32,5.18-3.52,7.77Zm0,0L72,44.54c1.17-2.63,2.36-5.27,3.58-7.9l3.64-7.85.06-.13.1.1c2.82,2.9,5.74,5.7,8.6,8.55l8.65,8.51.24.24-.31.14C91.29,48.61,86,51,80.71,53.31Z"/><polygon class="cls-3" points="62.21 63.05 30.86 77.25 48.02 94.4 62.21 63.05"/><path class="cls-4" d="M62.19,63.07,46.5,70.38C41.32,72.79,36.17,75.14,31,77.46l.07-.38,8.51,8.65c2.85,2.86,5.65,5.78,8.55,8.6l-.16,0,3.46-7.83c1.14-2.6,2.31-5.18,3.51-7.77Zm0,0L55.32,78.69C54.16,81.32,53,84,51.74,86.59l-3.63,7.85-.07.13-.09-.1c-2.82-2.9-5.74-5.7-8.61-8.55L30.7,77.41l-.25-.24.32-.14c5.24-2.41,10.54-4.79,15.81-7.11Z"/><path class="cls-5" d="M89,31.85a39.06,39.06,0,0,1-55,55,39.07,39.07,0,1,0,55-55Z"/><path class="cls-6" d="M97.88,73.74V59.89a38.76,38.76,0,0,1-3.16,12.66Z"/><path class="cls-6" d="M97.88,53.76V49.49l-.53.2A38.68,38.68,0,0,1,97.88,53.76Z"/><path class="cls-6" d="M79.28,94.4,96.43,77.25l-3.29-1.49A39.31,39.31,0,0,1,77.78,91.09Z"/><path class="cls-6" d="M51.74,95.26l-.22.59H56.6A38.86,38.86,0,0,1,51.74,95.26Z"/><path class="cls-6" d="M75.77,95.85l-1.19-3.19a38.78,38.78,0,0,1-13.27,3.19Z"/><path class="cls-7" d="M44.17,31.84s3.42-4.71,11.34-5.74"/><path class="cls-8" d="M44.16,33.84A2,2,0,0,1,43,33.46a2,2,0,0,1-.44-2.8c.16-.22,4-5.42,12.7-6.54a2,2,0,0,1,.51,4c-7,.9-9.95,4.88-10,4.92A2,2,0,0,1,44.16,33.84Z"/><path class="cls-9" d="M51.52,27.38l.58,1.55a18.63,18.63,0,0,1,3.66-.84A2,2,0,0,0,57,27.38Z"/><path class="cls-9" d="M48.76,30.49,48,28.83l-4.76,4.76a2,2,0,0,0,.9.25A2,2,0,0,0,45.78,33,11.42,11.42,0,0,1,48.76,30.49Z"/><path class="cls-8" d="M29.41,56.63a2.5,2.5,0,0,1-2.5-2.5c0-4,2.11-15.47,11.71-20.69A2.5,2.5,0,0,1,41,37.83c-7.43,4-9.1,13.35-9.1,16.3A2.5,2.5,0,0,1,29.41,56.63Z"/><path class="cls-9" d="M33.39,47.13A17.27,17.27,0,0,1,41,37.83a2.49,2.49,0,0,0,1.12-3.11L30.86,46Z"/><path class="cls-9" d="M31.91,54.13a18,18,0,0,1,.45-3.53l-2.95-1.11v7.14A2.5,2.5,0,0,0,31.91,54.13Z"/></g></g></g></svg>