<svg xmlns="http://www.w3.org/2000/svg" viewBox="0 0 125.29 128.29"><defs><style>.cls-1{fill:aqua;}.cls-2{fill:#ffcb00;}.cls-3{fill:#0dff08;}.cls-4{fill:none;stroke:#fff;stroke-width:2px;}.cls-4,.cls-5{stroke-miterlimit:10;}.cls-5{fill:#f7931e;stroke:#ffd597;stroke-linecap:round;stroke-width:4px;}.cls-6{fill:#ffd597;}.cls-7{fill:#8dff97;}.cls-8{fill:#ffb700;}.cls-9{fill:#0def08;}</style></defs><g id="Layer_2" data-name="Layer 2"><g id="Store"><g id="Line"><rect y="5" width="123.29" height="123.29" rx="28.04"/><rect class="cls-1" x="2" width="123.29" height="123.29" rx="28.04"/><circle class="cls-2" cx="63.65" cy="61.65" r="40.43"/><rect class="cls-3" x="23.82" y="49.09" width="79.65" height="25.11" rx="2.21"/><circle class="cls-4" cx="63.65" cy="61.65" r="40.43"/><path class="cls-5" d="M45.11,31.78S47.46,28,55.37,27"/><path class="cls-6" d="M30,54.78a2.5,2.5,0,0,1-2.48-2.23c-.48-4.26,3.59-13.74,12.19-19.73a2.5,2.5,0,1,1,2.86,4.1C35,42.19,32.29,49.94,32.51,52a2.49,2.49,0,0,1-2.2,2.76Z"/><path class="cls-7" d="M27.9,49.09a10.15,10.15,0,0,0-.35,3.46A2.5,2.5,0,0,0,30,54.78l.28,0A2.49,2.49,0,0,0,32.51,52a7.83,7.83,0,0,1,.57-2.91Z"/><path class="cls-8" d="M95.36,38.34A39.37,39.37,0,0,1,26.69,75.25,39.37,39.37,0,1,0,95.36,38.34Z"/><path class="cls-9" d="M97.66,49.09c.07.94.12,1.89.12,2.85a39.18,39.18,0,0,1-6.9,22.26H101a39.44,39.44,0,0,0,2-12.55A40.13,40.13,0,0,0,101,49.09Z"/></g></g></g></svg>