<svg xmlns="http://www.w3.org/2000/svg" viewBox="0 0 125.29 128.29"><defs><style>.cls-1{fill:aqua;}.cls-2{fill:#10ed00;stroke:#f0f;stroke-miterlimit:10;stroke-width:2px;}.cls-3{fill:#f700ff;}.cls-4{fill:#65ff4b;}.cls-5{fill:#ff95ff;}.cls-6{fill:#00db00;}.cls-7{fill:#d200d7;}</style></defs><g id="Layer_2" data-name="Layer 2"><g id="Store"><g id="Points"><rect y="5" width="123.29" height="123.29" rx="28.04"/><rect class="cls-1" x="2" width="123.29" height="123.29" rx="28.04"/><circle class="cls-2" cx="63.65" cy="61.65" r="40.43"/><circle class="cls-3" cx="48.76" cy="50.57" r="9.12"/><circle class="cls-3" cx="38.39" cy="65.09" r="3.45"/><circle class="cls-3" cx="65.98" cy="61.65" r="8.1"/><circle class="cls-3" cx="47.24" cy="79.36" r="6.92"/><circle class="cls-3" cx="69.49" cy="39.75" r="6.32"/><circle class="cls-3" cx="72.24" cy="80.41" r="6.21"/><circle class="cls-3" cx="87.15" cy="63.77" r="8.67"/><circle class="cls-3" cx="49.43" cy="30.44" r="3.97"/><circle class="cls-3" cx="83.14" cy="45.31" r="5.56"/><circle class="cls-3" cx="33.06" cy="47.31" r="2.33"/><circle class="cls-3" cx="89.48" cy="77.6" r="1.76"/><circle class="cls-3" cx="60.69" cy="80.73" r="2.96"/><circle class="cls-3" cx="69.6" cy="26.47" r="2.33"/><circle class="cls-3" cx="31.07" cy="74.96" r="2.64"/><path class="cls-4" d="M45.46,34.45a2.25,2.25,0,0,1-1.73-3.68c.17-.22,4.45-5.25,13.61-7.18A2.25,2.25,0,0,1,58.26,28c-7.53,1.58-11,5.62-11.08,5.66A2.28,2.28,0,0,1,45.46,34.45Z"/><path class="cls-5" d="M49.43,26.47h0a24.19,24.19,0,0,0-3.58,2.34,4,4,0,0,0-.35,1.62,4,4,0,0,0,1.68,3.25l0,0a18,18,0,0,1,6.12-4.09A4,4,0,0,0,49.43,26.47Z"/><path class="cls-4" d="M28.65,58a2.83,2.83,0,0,1-2.81-2.51c-.53-4.82,4.07-15.55,13.8-22.33a2.83,2.83,0,0,1,3.24,4.64c-8.56,6-11.67,14.73-11.42,17.06A2.82,2.82,0,0,1,29,58,1.77,1.77,0,0,1,28.65,58Z"/><path class="cls-5" d="M33.06,45a2.32,2.32,0,0,0-.18,4.63,29.79,29.79,0,0,1,2-3.67A2.31,2.31,0,0,0,33.06,45Z"/><path class="cls-6" d="M95.37,38.37A39.36,39.36,0,0,1,26.71,75.28,39.37,39.37,0,1,0,95.37,38.37Z"/><path class="cls-7" d="M89.48,79.36a1.75,1.75,0,0,0,.23-3.49c-.6.78-1.23,1.55-1.89,2.29A1.75,1.75,0,0,0,89.48,79.36Z"/><circle class="cls-7" cx="71.93" cy="94.94" r="2.64"/><path class="cls-7" d="M57.87,92.3a2.65,2.65,0,1,0,2.65,2.64A2.64,2.64,0,0,0,57.87,92.3Z"/></g></g></g></svg>