<svg xmlns="http://www.w3.org/2000/svg" viewBox="0 0 125 128"><defs><style>.cls-1{fill:aqua;}.cls-2{fill:#fcee21;stroke:#fff;stroke-width:2px;}.cls-2,.cls-4,.cls-5{stroke-miterlimit:10;}.cls-3{fill:#f2f2f2;}.cls-4{fill:none;stroke:#000;stroke-width:1.5px;}.cls-5{fill:#ffff21;stroke:#ffff89;stroke-linecap:round;stroke-width:4px;}.cls-6{fill:#ffff89;}.cls-7{fill:#dbdbe1;}.cls-8{fill:#cac000;}.cls-9{fill:#eedb00;}.cls-10{fill:#fff;}</style></defs><g id="Layer_2" data-name="Layer 2"><g id="Store"><g id="Smile"><rect y="5" width="123" height="123" rx="28.04"/><rect class="cls-1" x="2" width="123" height="123" rx="28.04"/><circle class="cls-2" cx="63.15" cy="61.01" r="40.43"/><circle class="cls-3" cx="53.8" cy="48.45" r="13.77"/><circle class="cls-3" cx="76.53" cy="48.45" r="13.77"/><circle cx="59.65" cy="53.72" r="5.85"/><circle cx="70.37" cy="53.41" r="6.16"/><path class="cls-3" d="M86.25,60.31c0-.18,0-.54,0-.54S82.9,67.05,72.12,72c-10.28,4.69-27.38-7.77-27.38-7.77s1.54,9.31,5.71,15.63c3.7,5.59,9.08,10.48,15.81,11.39C79.4,93,86,68.39,86.25,60.31Z"/><path class="cls-4" d="M62,78.34a13.26,13.26,0,0,0,14.77-1.76"/><line class="cls-4" x1="66.69" y1="77.05" x2="65.59" y2="82.9"/><line class="cls-4" x1="71.33" y1="76.58" x2="72.64" y2="81.78"/><path class="cls-5" d="M44.62,31.1S52.51,23.68,62,24.89"/><path class="cls-6" d="M29.05,56.94a2.67,2.67,0,0,1-2.77-2.26C25.56,50.15,29.44,39.8,38.35,33a2.68,2.68,0,1,1,3.27,4.25c-7.83,6-10.4,14.45-10,16.64a2.68,2.68,0,0,1-2.22,3.07A1.53,1.53,0,0,1,29.05,56.94Z"/><path class="cls-7" d="M77.52,85.39a39.08,39.08,0,0,1-14.81,4.94,17.4,17.4,0,0,0,3.55.88C70.79,91.82,74.54,89.3,77.52,85.39Z"/><path class="cls-8" d="M68.57,89.16h0Z"/><path class="cls-9" d="M94.86,37.65A39.38,39.38,0,0,1,77.52,85.39h0c-3,3.91-6.73,6.43-11.26,5.82a17.4,17.4,0,0,1-3.55-.88,40.17,40.17,0,0,1-4.8.3A39.26,39.26,0,0,1,26.19,74.57,39.37,39.37,0,1,0,94.86,37.65Z"/><path class="cls-8" d="M70.45,88.58h0Z"/><path class="cls-8" d="M72.29,87.91h0Z"/><path class="cls-8" d="M75.83,86.31h0Z"/><path class="cls-8" d="M74.08,87.15h0Z"/><path class="cls-10" d="M85.87,39.3c1.9,1.91,3.57,6.53,2,6.53s-4.37-3.55-5.42-4.66c-1.43-1.51-8-4.62-6.72-5.32S83.07,36.48,85.87,39.3Z"/><circle class="cls-10" cx="72.56" cy="50.43" r="1.99"/><circle class="cls-10" cx="72.68" cy="53.5" r="1.08"/><circle class="cls-10" cx="62.76" cy="51.51" r="1.99"/><circle class="cls-10" cx="62.76" cy="54.48" r="1.08"/></g></g></g></svg>