<svg xmlns="http://www.w3.org/2000/svg" viewBox="0 0 125.29 128.29"><defs><style>.cls-1{fill:aqua;}.cls-2{fill:#cdff00;}.cls-2,.cls-4{stroke:#8cc63f;stroke-width:2px;}.cls-2,.cls-4,.cls-7{stroke-miterlimit:10;}.cls-3{fill:#fff;}.cls-4{fill:none;}.cls-5{fill:#b9d500;}.cls-6{fill:#ccc;}.cls-7{fill:#f7931e;stroke:#e7ff8f;stroke-linecap:round;stroke-width:4px;}.cls-8{fill:#e7ff8f;}</style></defs><g id="Layer_2" data-name="Layer 2"><g id="Store"><g id="Tenis"><rect y="5" width="123.29" height="123.29" rx="28.04"/><rect class="cls-1" x="2" width="123.29" height="123.29" rx="28.04"/><circle class="cls-2" cx="63.65" cy="61.65" r="40.43"/><path class="cls-3" d="M95.13,87a47.5,47.5,0,0,1-11.48,1.4c-19.91,0-36.1-12-36.1-26.76s16.19-26.76,36.1-26.76a47.5,47.5,0,0,1,11.48,1.39A40.64,40.64,0,0,0,89,30.17a52.54,52.54,0,0,0-5.36-.28c-22.67,0-41.1,14.24-41.1,31.76S61,93.41,83.65,93.41A52.54,52.54,0,0,0,89,93.13,41.17,41.17,0,0,0,95.13,87Z"/><circle class="cls-4" cx="63.65" cy="61.65" r="40.43"/><path class="cls-5" d="M95.36,38.34A39.37,39.37,0,0,1,26.69,75.25,39.37,39.37,0,1,0,95.36,38.34Z"/><path class="cls-6" d="M93.44,87.38a47.92,47.92,0,0,1-9.79,1A47.49,47.49,0,0,1,75,87.63a39.12,39.12,0,0,1-8.58,2.85,51,51,0,0,0,17.2,2.93c1.16,0,2.31-.06,3.45-.13A39.4,39.4,0,0,0,93.44,87.38Z"/><path class="cls-7" d="M45.83,31s2-4.79,10.94-4.59"/><path class="cls-8" d="M29.74,57.37a2.76,2.76,0,0,1-2.94-2.22c-.82-4.54,3.15-15,12.45-22a2.92,2.92,0,0,1,4,.43,2.61,2.61,0,0,1-.47,3.78C34.56,43.5,32,52,32.36,54.22a2.73,2.73,0,0,1-2.31,3.12Z"/></g></g></g></svg>