<svg xmlns="http://www.w3.org/2000/svg" viewBox="0 0 125.29 128.29"><defs><style>.cls-1{fill:aqua;}.cls-2{fill:#32ff00;stroke:#39b54a;}.cls-10,.cls-2{stroke-miterlimit:10;stroke-width:2px;}.cls-3{fill:#e6e6e6;}.cls-4{fill:#e50600;}.cls-5{fill:#fff;}.cls-6{fill:#ff0600;}.cls-7{fill:#17cd00;}.cls-8{fill:#b3b3b3;}.cls-9{fill:#bf0600;}.cls-10{stroke:#000;}</style></defs><g id="Layer_2" data-name="Layer 2"><g id="Store"><g id="Watermelon"><rect y="5" width="123.29" height="123.29" rx="28.04"/><rect class="cls-1" x="2" width="123.29" height="123.29" rx="28.04"/><circle class="cls-2" cx="63.65" cy="61.65" r="40.43"/><circle class="cls-3" cx="63.65" cy="61.65" r="37.25"/><circle class="cls-4" cx="63.65" cy="61.65" r="33.09"/><path class="cls-5" d="M46.3,35.74a1.92,1.92,0,0,1-1.18-.39,2,2,0,0,1-.44-2.75c.32-.45,3.37-4.38,12-5a2,2,0,1,1,.26,4c-6.75.44-9,3.2-9.06,3.32A2,2,0,0,1,46.3,35.74Z"/><path class="cls-6" d="M45.12,35.35a1.92,1.92,0,0,0,1.18.39A2,2,0,0,0,47.91,35c.09-.12,2.31-2.88,9.06-3.32a2,2,0,0,0,1.87-2.13,1.89,1.89,0,0,0-.14-.58,32.77,32.77,0,0,0-14.16,5.72A1.85,1.85,0,0,0,45.12,35.35Z"/><path class="cls-5" d="M31.77,57.43a2.5,2.5,0,0,1-2.56-2.14c-.62-4.24,3.13-13.85,11.52-20.13a2.5,2.5,0,1,1,3,4c-7.38,5.52-9.87,13.36-9.57,15.41A2.51,2.51,0,0,1,32,57.41Z"/><path class="cls-6" d="M30.86,57.29a2.48,2.48,0,0,0,.91.14l.27,0a2.51,2.51,0,0,0,2.12-2.84c-.3-2,2.19-9.89,9.57-15.41a2.5,2.5,0,0,0,.5-3.5,2.23,2.23,0,0,0-.46-.46A33,33,0,0,0,30.86,57.29Z"/><path class="cls-7" d="M95.36,38.34A39.37,39.37,0,0,1,26.69,75.25,39.37,39.37,0,1,0,95.36,38.34Z"/><path class="cls-8" d="M97.25,45.56A39.34,39.34,0,0,1,31.74,80.87,37.25,37.25,0,0,0,97.25,45.56Z"/><path class="cls-9" d="M96.72,61A39.36,39.36,0,0,1,44.94,88.93,33.08,33.08,0,0,0,96.73,61.65C96.73,61.43,96.72,61.22,96.72,61Z"/><circle cx="63.65" cy="35.65" r="2.23"/><circle cx="63.65" cy="61.65" r="2.23"/><circle cx="63.65" cy="87.65" r="2.23"/><circle cx="37.65" cy="61.65" r="2.23"/><circle cx="89.65" cy="61.65" r="2.23"/><circle cx="45.81" cy="42.73" r="2.23"/><circle cx="81.48" cy="80.57" r="2.23"/><circle cx="44.73" cy="79.48" r="2.23"/><circle cx="82.57" cy="43.81" r="2.23"/><circle class="cls-10" cx="71.03" cy="49.57" r="1.22"/><circle class="cls-10" cx="56.26" cy="73.72" r="1.22"/><circle class="cls-10" cx="51.57" cy="54.26" r="1.22"/><circle class="cls-10" cx="75.72" cy="69.03" r="1.22"/><circle class="cls-10" cx="60.74" cy="47.8" r="1.22"/><circle class="cls-10" cx="66.56" cy="75.5" r="1.22"/><circle class="cls-10" cx="49.8" cy="64.56" r="1.22"/><circle class="cls-10" cx="77.5" cy="58.74" r="1.22"/></g></g></g></svg>