<svg xmlns="http://www.w3.org/2000/svg" viewBox="0 0 125.29 128.29"><defs><style>.cls-1{fill:aqua;}.cls-2{fill:#b7b7b8;}.cls-3{fill:#875c53;}.cls-4{fill:red;}.cls-5{fill:gray;}.cls-6{fill:#ccc;}</style></defs><g id="Layer_2" data-name="Layer 2"><g id="Store"><g id="Wheel"><rect y="5" width="123.29" height="123.29" rx="28.04"/><rect class="cls-1" x="2" width="123.29" height="123.29" rx="28.04"/><path class="cls-2" d="M63.65,28.21A33.44,33.44,0,1,1,30.21,61.65,33.47,33.47,0,0,1,63.65,28.21m0-7a40.44,40.44,0,1,0,40.43,40.44A40.45,40.45,0,0,0,63.65,21.21Z"/><path class="cls-2" d="M63.65,28.21A33.44,33.44,0,1,1,30.21,61.65,33.47,33.47,0,0,1,63.65,28.21m0-7a40.44,40.44,0,1,0,40.43,40.44A40.45,40.45,0,0,0,63.65,21.21Z"/><polygon class="cls-3" points="23.25 65.47 19.75 66.47 19.75 56.83 23.25 57.83 23.25 65.47"/><polygon class="cls-3" points="26.99 79.05 24.05 81.19 20.75 72.13 24.38 71.88 26.99 79.05"/><polygon class="cls-3" points="35.16 90.54 33.12 93.55 26.93 86.17 30.25 84.69 35.16 90.54"/><polygon class="cls-3" points="46.76 98.54 45.87 102.07 37.53 97.25 40.14 94.72 46.76 98.54"/><polygon class="cls-3" points="60.39 102.09 60.77 105.71 51.28 104.04 52.87 100.77 60.39 102.09"/><polygon class="cls-3" points="74.42 100.77 76.02 104.04 66.52 105.71 66.9 102.09 74.42 100.77"/><polygon class="cls-3" points="87.15 94.72 89.77 97.25 81.42 102.07 80.54 98.54 87.15 94.72"/><polygon class="cls-3" points="97.05 84.69 100.37 86.17 94.17 93.55 92.14 90.54 97.05 84.69"/><polygon class="cls-3" points="102.92 71.88 106.54 72.13 103.25 81.19 100.3 79.05 102.92 71.88"/><polygon class="cls-3" points="104.05 57.83 107.54 56.83 107.54 66.47 104.05 65.47 104.05 57.83"/><polygon class="cls-3" points="100.3 44.24 103.25 42.11 106.54 51.16 102.92 51.42 100.3 44.24"/><polygon class="cls-3" points="92.14 32.75 94.17 29.74 100.37 37.13 97.05 38.61 92.14 32.75"/><polygon class="cls-3" points="80.54 24.75 81.42 21.23 89.77 26.04 87.15 28.57 80.54 24.75"/><polygon class="cls-3" points="66.9 21.2 66.52 17.58 76.02 19.26 74.42 22.53 66.9 21.2"/><polygon class="cls-3" points="52.87 22.53 51.28 19.26 60.77 17.58 60.39 21.2 52.87 22.53"/><polygon class="cls-3" points="40.14 28.57 37.53 26.04 45.87 21.23 46.76 24.75 40.14 28.57"/><polygon class="cls-3" points="30.25 38.61 26.93 37.13 33.12 29.74 35.16 32.75 30.25 38.61"/><polygon class="cls-3" points="24.38 51.42 20.75 51.16 24.05 42.11 26.99 44.24 24.38 51.42"/><circle class="cls-4" cx="63.65" cy="61.65" r="19.54"/><circle class="cls-2" cx="63.65" cy="61.65" r="11.07"/><polygon class="cls-2" points="65.42 96.45 55.41 96.45 63.41 72.71 66.44 72.36 65.42 96.45"/><polygon class="cls-2" points="94.67 77.52 89.67 86.18 73.11 67.39 74.32 64.58 94.67 77.52"/><polygon class="cls-2" points="92.9 42.72 97.9 51.38 73.35 56.32 71.53 53.87 92.9 42.72"/><polygon class="cls-2" points="61.88 26.85 71.88 26.85 63.89 50.58 60.85 50.94 61.88 26.85"/><polygon class="cls-2" points="32.63 45.78 37.63 37.12 54.19 55.91 52.97 58.71 32.63 45.78"/><polygon class="cls-2" points="34.39 80.58 29.39 71.92 53.94 66.97 55.77 69.42 34.39 80.58"/><path class="cls-5" d="M88.89,31.84A39,39,0,0,1,96.7,66.65,33.5,33.5,0,0,1,68.45,94.73a39.06,39.06,0,0,1-34.58-7.87,39.07,39.07,0,1,0,55-55Z"/><path class="cls-5" d="M92.75,76.3a39.2,39.2,0,0,1-5.38,7.27l2.3,2.61,5-8.66Z"/><path class="cls-6" d="M60.93,25.38c-8.65,0-16.25,6-16.57,6.25a2,2,0,0,0-.31,2.81.34.34,0,0,0,.08.09,33.23,33.23,0,0,1,18.6-6.29,2.05,2.05,0,0,0,.2-.86A2,2,0,0,0,60.93,25.38Z"/><path class="cls-6" d="M30.21,61.65A33.42,33.42,0,0,1,43.74,34.8a2.48,2.48,0,0,0-3.35-.94c-11,6-13.78,21.52-14.44,27.92a2.5,2.5,0,0,0,2.22,2.75h.27a2.48,2.48,0,0,0,1.84-.83C30.24,63,30.21,62.34,30.21,61.65Z"/><path class="cls-6" d="M37.63,37.12l-5,8.66L37.72,49a8.2,8.2,0,0,0,5.45-5.6Z"/><path class="cls-6" d="M61.65,32.25a3.28,3.28,0,0,0,1.91-3.31,3.52,3.52,0,0,0-.7-2.09h-1Z"/></g></g></g></svg>