<svg xmlns="http://www.w3.org/2000/svg" viewBox="0 0 125.29 128.29"><defs><style>.cls-1{fill:aqua;}.cls-2{fill:#e6e6e6;stroke:#000;stroke-width:2px;}.cls-2,.cls-4,.cls-5{stroke-miterlimit:10;}.cls-3{fill:#b3b3b3;}.cls-4,.cls-5{fill:#fff;stroke:#fff;stroke-linecap:round;}.cls-4{stroke-width:4px;}.cls-5{stroke-width:5px;}</style></defs><g id="Layer_2" data-name="Layer 2"><g id="Store"><g id="White"><rect y="5" width="123.29" height="123.29" rx="28.04"/><rect class="cls-1" x="2" width="123.29" height="123.29" rx="28.04"/><circle class="cls-2" cx="63.65" cy="61.65" r="40.43"/><path class="cls-3" d="M88.89,31.84c5.65,6.77,7.06,13.49,7.06,23A39.07,39.07,0,0,1,56.88,93.92c-9.52,0-19.24-4.41-26-10.06,7.16,8.59,18,16.49,30,17.06C85.63,102.08,103,83.42,103,61.85A39,39,0,0,0,88.89,31.84Z"/><path class="cls-4" d="M47.22,30.56s3.43-3.91,11.34-4.93"/><path class="cls-5" d="M31.67,49.88c0-3.06,2.55-11.49,11.32-16.25"/></g></g></g></svg>