<svg xmlns="http://www.w3.org/2000/svg" viewBox="0 0 18.55 72.86"><defs><style>.cls-1{fill:#fff;}</style></defs><g id="Layer_2" data-name="Layer 2"><g id="Finish"><path class="cls-1" d="M7.9,72.31c.63-2.83,1.37-5.38,2-7.86a47.91,47.91,0,0,0,1.36-7c.09-1.1.21-2.15.26-3.19a18.15,18.15,0,0,0,0-3.21,8.5,8.5,0,0,0-1.09-3.31A8.67,8.67,0,0,0,7.88,45l.15.09c-1-.52-2-1-3-1.65a13,13,0,0,1-3-2.35,7.64,7.64,0,0,1-1.91-4,10,10,0,0,1,.35-4.39A21.75,21.75,0,0,1,4,26.23c.63-.9,1.26-1.78,1.67-2.49.19-.32.35-.69.25-.61a1.71,1.71,0,0,0-.18.89,3.3,3.3,0,0,0,.24,1.18,3.51,3.51,0,0,0,.32.58,1.5,1.5,0,0,0,.19.25c0,.06.1.13.16.19a2.52,2.52,0,0,0,.8.57l-.54-.2c-.22-.09-.44-.17-.66-.28a9.08,9.08,0,0,1-2.37-1.65,10.41,10.41,0,0,1-2.7-4.43A15.82,15.82,0,0,1,1,12a21.57,21.57,0,0,1,2.9-6.74A19.62,19.62,0,0,1,8.73.08a.42.42,0,0,1,.6.1A.46.46,0,0,1,9.4.52,47.82,47.82,0,0,0,8,12.77a12.08,12.08,0,0,0,1,4.62,3.37,3.37,0,0,0,.72,1l.29.21a.2.2,0,0,0,.08,0l0,0,.18.07a6,6,0,0,1,2.19,1.39l.31.33c.11.13.21.27.31.41a5.2,5.2,0,0,1,.52.93,5.28,5.28,0,0,1,.41,2,5.78,5.78,0,0,1-.54,2.46,9.9,9.9,0,0,1-1.41,2.18c-.87,1-1.66,1.8-2.42,2.56-1.48,1.52-2.83,2.88-3.88,4.17s-1.67,2.42-1,4a8,8,0,0,0,4.3,3.69l.06,0,.1.06a42.37,42.37,0,0,1,3.64,2.51,16.59,16.59,0,0,1,3.36,3.43,12.28,12.28,0,0,1,2.05,4.59,13.06,13.06,0,0,1,.09,4.9,21.05,21.05,0,0,1-3.46,8.39,19.7,19.7,0,0,1-6.38,6,.44.44,0,0,1-.59-.17.45.45,0,0,1,0-.3Z"/></g></g></svg>