<svg xmlns="http://www.w3.org/2000/svg" viewBox="0 0 90.76 77.71"><defs><style>.cls-1{fill:none;stroke:#fff;stroke-linecap:round;stroke-linejoin:round;}</style></defs><g id="Layer_2" data-name="Layer 2"><g id="Finish"><polyline class="cls-1" points="43.47 1.75 45.57 0.53 40.29 7.24 47.16 3.28 39.22 9.1 47.7 4.21 38.76 9.9 47.93 4.61 35.58 15.41 49.52 7.36 31.48 22.51 51.57 10.91 31.07 23.21 51.77 11.26 27.01 30.25 53.8 14.78 22.95 37.28 55.83 18.3 18.77 44.52 57.92 21.92 16.41 48.62 59.1 23.96 14.26 52.33 60.18 25.82 9.99 59.72 62.31 29.52 8.16 62.89 63.22 31.1 4.71 68.88 64.95 34.1 1.53 74.38 66.54 36.85 1.5 74.44 66.56 36.88 1.05 76.22 67.22 38.02 9.93 76.22 69.44 41.87 16.83 76.22 71.16 44.85 17.52 76.22 71.34 45.15 19.66 76.22 71.87 46.08 27.36 76.22 73.8 49.41 35.71 76.22 75.88 53.03 43.41 76.22 77.81 56.36 44.55 76.22 78.09 56.85 47.41 76.22 78.81 58.09 54.76 76.22 80.65 61.28 58.82 76.22 81.66 63.03 61.31 76.22 82.28 64.11 63.08 76.22 82.73 64.88 67.08 76.22 83.73 66.61 69.76 76.22 84.4 67.77 72.93 76.22 85.19 69.14 80.18 76.22 87 72.28 86.47 76.22 88.57 75.01"/><polyline class="cls-1" points="43.16 2.19 44.92 1.17 38.77 9.49 41.03 8.19 37.3 11.95 39.73 10.54 35.86 14.34 38.45 12.84 33.95 17.52 36.76 15.9 31.92 20.89 34.96 19.14 30.74 22.87 33.9 21.05 30.09 23.95 33.32 22.09 29.53 24.89 32.82 22.99 27.55 28.2 31.05 26.18 25.3 31.98 29 29.84 23.27 35.4 27.13 33.17 21.64 38.15 25.63 35.84 21.23 38.85 25.25 36.53 17.7 44.84 21.93 42.4 16.94 46.13 21.22 43.66 14.94 49.58 19.29 47.07 12.13 54.47 16.46 51.97 8.86 60.26 13.04 57.85 5.59 66.13 9.39 63.93 2.08 72.44 5.47 70.48 0.5 76.65 3.59 74.87 7.49 76.58 10.33 74.94 13.37 76.53 16.07 74.97 16.79 76.53 19.47 74.98 24.2 76.53 26.9 74.97 29.24 76.56 32.05 74.94 31.02 76.57 33.87 74.93 32.31 76.58 35.2 74.91 40.76 76.7 44.07 74.78 47.11 76.79 50.75 74.69 48.12 76.8 51.8 74.68 54.03 76.89 58.01 74.59 57.5 76.93 61.65 74.54 61.91 77 66.28 74.47 61.93 77 66.31 74.47 68.67 77.07 73.27 74.42 69.71 77.08 74.33 74.41 77.59 77.13 82.41 74.35 78.56 77.14 83.4 74.34 86.47 77.2 89.84 75.25 88.16 77.21 90.26 76"/><polyline class="cls-1" points="43.85 1.5 45.59 0.5 45.39 4.28 47.22 3.22 45.91 5.22 47.77 4.14 46.14 5.62 48.01 4.54 47.68 8.4 49.65 7.26 49.67 11.98 51.76 10.78 49.87 12.34 51.97 11.13 51.84 15.89 54.06 14.61 53.82 19.44 56.15 18.09 55.85 23.09 58.3 21.68 57 25.16 59.52 23.7 58.04 27.03 60.62 25.54 60.11 30.77 62.82 29.2 61 32.37 63.76 30.77 62.68 35.39 65.54 33.74 64.22 38.16 67.17 36.46 64.24 38.2 67.19 36.49 64.88 39.35 67.87 37.62 67.06 43.22 70.13 41.45 68.76 46.22 71.88 44.42 68.92 46.52 72.06 44.72 69.45 47.45 72.6 45.64 71.34 50.81 74.56 48.95 73.39 54.45 76.68 52.55 75.28 57.8 78.64 55.86 75.56 58.29 78.92 56.35 76.28 59.53 79.64 57.59 78.11 62.72 81.48 60.77 79.13 64.48 82.5 62.53 79.75 65.56 83.12 63.61 80.19 66.32 83.56 64.38 81.19 68.05 84.56 66.11 81.86 69.21 85.23 67.27 82.65 70.59 86.03 68.64 84.47 73.73 87.84 71.78 85.26 75.1 88.63 73.15"/></g></g></svg>