<svg xmlns="http://www.w3.org/2000/svg" viewBox="0 0 679.64 677.61"><defs><style>.cls-1{fill:aqua;}</style></defs><g id="Layer_2" data-name="Layer 2"><g id="Win_UI" data-name="Win UI"><polygon class="cls-1" points="591.75 107 585.59 177.79 652.65 201.29 623.84 266.25 679.64 310.25 631.29 362.33 669.79 422.06 607.15 455.62 624.16 524.62 554.02 536.02 547.71 606.81 477.66 594.82 448.71 659.72 386.35 625.63 337.89 677.61 289.98 625.13 227.27 658.56 199 593.36 128.83 604.62 123.26 533.77 53.24 521.64 70.97 452.82 8.69 418.61 47.8 359.28 0 306.69 56.26 263.28 28.12 198.02 95.43 175.23 90.01 104.37 161.07 104.67 178.95 35.89 246.07 59.25 285.31 0 341.2 43.88 397.56 0.59 436.17 60.24 503.53 37.59 520.69 106.55 591.75 107"/><polygon class="cls-1" points="448.63 159.87 459.9 170.38 519.91 166.01 632.05 244.48 623.84 266.25 679.64 310.25 631.29 362.33 669.79 422.06 607.15 455.62 624.16 524.62 554.02 536.02 547.71 606.81 477.66 594.82 448.71 659.72 386.35 625.63 348.76 665.06 251.47 550.53 275.76 532.13 354.21 339.27 448.63 159.87"/></g></g></svg>