<svg xmlns="http://www.w3.org/2000/svg" viewBox="0 0 357.47 390.67"><defs><style>.cls-1{fill:#ffc400;}.cls-2{fill:#ffe400;}.cls-3{fill:#ffcf00;}.cls-4{fill:#001a36;}.cls-5{fill:#324b60;}.cls-6{fill:#f19000;}.cls-7{fill:#f7b033;}</style></defs><g id="Layer_2" data-name="Layer 2"><g id="Win_UI" data-name="Win UI"><path class="cls-1" d="M285.93,6.15c.12-2.09.26-4.2.26-6.15H71.27c0,2,.13,4.06.25,6.15H0S27,138.74,125.59,138.74c.5,0,1,0,1.56-.05a110.84,110.84,0,0,0,17.75,16.16,8,8,0,0,0,.11,15.93h10.54l-24.1,101.39h-17.9v96h136v-96H231.59L207.48,170.78h10.57a8,8,0,0,0,0-16h-5.44a111.89,111.89,0,0,0,17.69-16.11c.51,0,1,.05,1.54.05,98.58,0,125.63-132.59,125.63-132.59ZM18.7,20.39H73.06c5,32,20.39,72.83,42,103.28C56.63,116.58,28.82,52,18.7,20.39Zm211.61,265v66.78H131.24V285.34Zm12.07-161.67c21.62-30.44,37-71.26,42-103.28h54.39C328.62,52,300.79,116.59,242.38,123.67Z"/><path class="cls-2" d="M113.55,272.17v96h64.36V352.12H131.24V285.34h46.67V0H71.27c0,2,.13,4.06.25,6.15H0S27,138.74,125.59,138.74c.5,0,1,0,1.56-.05a110.84,110.84,0,0,0,17.75,16.16,8,8,0,0,0,.11,15.93h10.54l-24.1,101.39ZM18.7,20.39H73.06c5,32,20.39,72.83,42,103.28C56.63,116.58,28.82,52,18.7,20.39Z"/><path class="cls-3" d="M131.24,352.12V285.34h3.69a4.49,4.49,0,0,1,0-2c6.32-27.36,11.05-48.64,16.92-75.09,3.82-17.19,5.94-29.07,8.7-40.52-6.15.63-17,3-17.61-4.46-.63-8.48,8.49-7.17,8.91-7.21-7.21-6.58-24.6-26.09-44.41-66C99.07,73.33,86.63,29.05,84.41,0H71.27c0,2,.13,4.06.25,6.15H0S27,138.74,125.59,138.74c.5,0,1,0,1.56-.05a110.84,110.84,0,0,0,17.75,16.16,8,8,0,0,0,.11,15.93h10.54l-24.1,101.39h-17.9v96h64.36V352.12ZM18.7,20.39H73.06c5,32,20.39,72.83,42,103.28C56.63,116.58,28.82,52,18.7,20.39Z"/><path class="cls-2" d="M144.23,285.34h4.87c1.54-9.17,1.62-18.48,2.58-27.74.44-4.26,1.19-8.46,2-12.65C150.06,258.29,146.65,271.68,144.23,285.34Z"/><path class="cls-3" d="M122.89,0c-1,28.42,1.45,51.36,12.84,83.19,17.36,48.5,35.18,66.32,35.18,78,0,29.59-10,106.46-12.14,124.16h19.14V0Z"/><rect class="cls-4" x="89.04" y="367.17" width="179.4" height="23.49"/><rect class="cls-5" x="89.04" y="367.17" width="88.72" height="23.49"/><path class="cls-2" d="M71.52,6.15H0S8.05,46.93,33.48,84.74s55.18,47.68,60.07,49c23.1,6.36,33.6,4.92,33.6,4.92s-30.08-.74-59.7-23C45.13,98.92,28.3,71.19,17.92,45.42,9,23.33,6,10.11,6,10.11l65.76.17Z"/><path class="cls-2" d="M285.93,6.15h71.54s-9.91,48.81-40,87.29c-26.44,33.8-51.2,40.5-66.93,43.84s-20.21,1.41-20.21,1.41a111.82,111.82,0,0,0,24.39-3.92c14.9-4.35,40.16-16.73,62.92-49.19C343.61,48.49,348.4,12,348.4,12L285,11.79Z"/><polygon class="cls-2" points="229.98 285.52 125.92 283.21 131.42 351.14 131.56 351.83 229.98 285.52"/><rect class="cls-6" x="131.24" y="285.34" width="99.07" height="66.78"/><rect class="cls-7" x="135.35" y="289.94" width="93.48" height="60.53"/></g></g></svg>