<svg xmlns="http://www.w3.org/2000/svg" viewBox="0 0 192.26 199.26"><defs><style>.cls-1{opacity:0.75;}.cls-2{fill:aqua;}.cls-3{fill:#fff;}</style></defs><g id="Layer_2" data-name="Layer 2"><g id="Win_UI" data-name="Win UI"><g id="HomeButton"><g class="cls-1"><circle cx="96.13" cy="103.13" r="96.13"/></g><circle class="cls-2" cx="96.13" cy="96.13" r="96.13"/><polygon points="92.93 44.8 43 89.02 48.26 94.96 93.14 55.22 138.01 94.96 143.26 89.02 93.33 44.8 93.14 45.03 92.94 44.8 92.93 44.8"/><polygon class="cls-3" points="97.93 38.8 48 83.02 53.26 88.96 98.14 49.22 143.01 88.96 148.26 83.02 98.33 38.8 98.14 39.03 97.94 38.8 97.93 38.8"/><path d="M128.32,93,93.14,61.86,57.93,93v44.55A2.07,2.07,0,0,0,60,139.66H82V120.13a2.07,2.07,0,0,1,2.08-2.08h18.08a2.07,2.07,0,0,1,2.07,2.08v19.53h22a2.07,2.07,0,0,0,2.08-2.07V93Z"/><path class="cls-3" d="M133.32,87,98.14,55.86,62.93,87v44.55A2.07,2.07,0,0,0,65,133.66H87V114.13a2.07,2.07,0,0,1,2.08-2.08h18.08a2.07,2.07,0,0,1,2.07,2.08v19.53h22a2.07,2.07,0,0,0,2.08-2.07V87Z"/><polygon points="57.93 51.15 70.58 51.15 70.47 58.64 57.93 69.98 57.93 51.15 57.93 51.15"/><polygon class="cls-3" points="62.93 45.15 75.58 45.15 75.47 52.64 62.93 63.98 62.93 45.15 62.93 45.15"/></g></g></g></svg>