<svg xmlns="http://www.w3.org/2000/svg" viewBox="0 0 125.29 128.29"><defs><style>.cls-1{fill:aqua;}.cls-2,.cls-3{stroke:#000;stroke-miterlimit:10;stroke-width:2px;opacity:0.98;isolation:isolate;}.cls-3{fill:gray;}</style></defs><g id="Layer_2" data-name="Layer 2"><g id="Levels"><g id="Stage_1" data-name="Stage 1"><rect y="5" width="123.29" height="123.29" rx="41.73"/><rect class="cls-1" x="2" width="123.29" height="123.29" rx="41.73"/><path class="cls-2" d="M58.52,29.2A23.61,23.61,0,0,0,35.47,52.87V62.93H29.26V97.16h0c0,.24,0,.49,0,.74,0,9.94,7.28,17.94,16.33,17.94H72.65c9,0,16.34-8,16.34-17.94,0-.25,0-.5,0-.74h0V62.93H82.8V52.87A23.61,23.61,0,0,0,59.14,29.2Zm-.11,6.9h.47c7.5-.17,14.86,5.37,16.4,12.74.26,4.7.4,9.39.49,14.09H42.54c0-2.25,0-4.49-.06-6.74-1.9-9.61,6.12-19.86,15.93-20.09Zm.69,39.35a7.82,7.82,0,0,1,1.07.08,7,7,0,0,1,3.47,12.36l2.46,15.44H52.15L54.6,87.89a7,7,0,0,1,4.5-12.44Z"/><path class="cls-3" d="M65.52,20.2a23.61,23.61,0,0,0-23,23.67V53.93H36.26V88.16h0c0,.24,0,.49,0,.74,0,9.94,7.28,17.94,16.33,17.94H79.65c9,0,16.34-8,16.34-17.94,0-.25,0-.5,0-.74h0V53.93H89.8V43.87A23.61,23.61,0,0,0,66.14,20.2Zm-.11,6.9h.47c7.5-.17,14.86,5.37,16.4,12.74.26,4.7.4,9.39.49,14.09H49.54c0-2.25,0-4.49-.06-6.74-1.9-9.61,6.12-19.86,15.93-20.09Zm.69,39.35a7.82,7.82,0,0,1,1.07.08,7,7,0,0,1,3.47,12.36L73.1,94.33H59.15L61.6,78.89a7,7,0,0,1,4.5-12.44Z"/></g></g></g></svg>