<svg xmlns="http://www.w3.org/2000/svg" xmlns:xlink="http://www.w3.org/1999/xlink" viewBox="0 0 277.06 277.06"><defs><style>.cls-1{fill:lime;}.cls-2,.cls-4{fill-rule:evenodd;}.cls-2{fill:url(#linear-gradient);}.cls-3{fill:#536164;}.cls-4{fill:#fff;}</style><linearGradient id="linear-gradient" x1="209" y1="253.06" x2="161.34" y2="170.51" gradientUnits="userSpaceOnUse"><stop offset="0" stop-color="#007f00" stop-opacity="0"/><stop offset="0.19" stop-color="#019201" stop-opacity="0.3"/><stop offset="0.36" stop-color="#03a103" stop-opacity="0.52"/><stop offset="0.45" stop-color="#03a603" stop-opacity="0.6"/><stop offset="0.61" stop-color="#07a607" stop-opacity="0.62"/><stop offset="0.76" stop-color="#12a712" stop-opacity="0.69"/><stop offset="0.9" stop-color="#26a726" stop-opacity="0.8"/><stop offset="1" stop-color="#38a838" stop-opacity="0.9"/></linearGradient></defs><g id="Layer_2" data-name="Layer 2"><g id="MainMenu"><g id="Play_Button" data-name="Play Button"><circle class="cls-1" cx="138.53" cy="138.53" r="128.53"/></g><polygon class="cls-2" points="103.61 203.84 128.41 270.61 159.02 270.61 184.84 264.49 208.89 253.12 224.72 242.02 246.94 216.49 259.21 182.87 218.57 138.53 103.61 203.84"/><path id="Play_Button-2" data-name="Play Button" class="cls-3" d="M138.53,10A128.53,128.53,0,1,1,10,138.53,128.53,128.53,0,0,1,138.53,10m0-10A138.53,138.53,0,0,0,40.58,236.49,138.53,138.53,0,0,0,236.49,40.58,137.61,137.61,0,0,0,138.53,0Z"/><polygon class="cls-4" points="218.57 138.53 103.61 73.22 103.61 203.84 218.57 138.53"/></g></g></svg>