<svg xmlns="http://www.w3.org/2000/svg" viewBox="0 0 532.86 88.4"><defs><style>.cls-1{stroke:#000;}.cls-1,.cls-2{stroke-miterlimit:10;stroke-width:4px;}.cls-2{fill:red;stroke:#fff;}</style></defs><g id="Layer_2" data-name="Layer 2"><g id="Lose_UI" data-name="Lose UI"><g id="LoseWriting"><path class="cls-1" d="M42.74,56.81v15a43.25,43.25,0,0,0,.17,4.4,7.83,7.83,0,0,0,.6,2.43,4.79,4.79,0,0,0,1.06,1.51,6.17,6.17,0,0,0,1.75,1,12.9,12.9,0,0,0,3,.73v3.61H19.17V81.91a14.89,14.89,0,0,0,3.58-1,4.16,4.16,0,0,0,2-1.75,7.51,7.51,0,0,0,.85-2.93,42.14,42.14,0,0,0,.19-4.45v-15L11,25.53q-1.92-4-3-5.9A18,18,0,0,0,5.8,16.4,6.14,6.14,0,0,0,4.13,15,6.79,6.79,0,0,0,2,14.48v-3.6H31.15v3.6c-2.81.37-4.21,1.75-4.21,4.16A10.73,10.73,0,0,0,27.62,22c.46,1.31,1.19,3.06,2.22,5.25l9.24,20.56,10-20.07a33,33,0,0,0,2-5,14.38,14.38,0,0,0,.57-4,4.17,4.17,0,0,0-1.12-3.09,4.7,4.7,0,0,0-3.14-1.23v-3.6H69.38v3.6a8,8,0,0,0-2.44.91,9.91,9.91,0,0,0-2.1,1.8,27,27,0,0,0-2.74,3.69c-1.06,1.64-2.28,3.78-3.66,6.4Z"/><path class="cls-1" d="M101.47,86.4Q85.39,86.4,77.32,77T69.26,48.83q0-12.3,3.91-21A28.55,28.55,0,0,1,84.68,14.54Q92.29,10,102.78,10q16.35,0,24.56,9.38t8.2,27.86A57.29,57.29,0,0,1,133.11,65a32.15,32.15,0,0,1-6.92,12.17,27.16,27.16,0,0,1-10.75,7A41.31,41.31,0,0,1,101.47,86.4ZM86.65,47.35q0,16.51,4,24.58T102.73,80a11.43,11.43,0,0,0,7.16-2.27,16.23,16.23,0,0,0,4.79-6.34,36,36,0,0,0,2.62-9.66,87.07,87.07,0,0,0,.79-12.25,81.42,81.42,0,0,0-1.72-18.23q-1.73-7.37-5.19-11.11a11.61,11.61,0,0,0-8.89-3.74Q94.35,16.4,90.5,24T86.65,47.35Z"/><path class="cls-1" d="M194.43,24.6a30.32,30.32,0,0,0-.36-5.71,4.91,4.91,0,0,0-1.39-2.6,10,10,0,0,0-4.05-1.81v-3.6H212.7v3.6a15,15,0,0,0-3.12,1.18,4.22,4.22,0,0,0-1.75,1.75,7.58,7.58,0,0,0-.77,2.84c-.11,1.15-.16,2.6-.16,4.35V58.78a49.66,49.66,0,0,1-1.1,11.35,20.81,20.81,0,0,1-3.39,7.68,17.7,17.7,0,0,1-5.71,5A25.46,25.46,0,0,1,189,85.58a50.73,50.73,0,0,1-9.57.82,46.29,46.29,0,0,1-13.13-1.61,21,21,0,0,1-8.72-4.87,20,20,0,0,1-5-7.9A37.4,37.4,0,0,1,151,60V24.66c0-1.72,0-3.16-.14-4.32a7.43,7.43,0,0,0-.71-2.85,4.46,4.46,0,0,0-1.75-1.78,13.89,13.89,0,0,0-3.25-1.23v-3.6h28.71v3.6a12.39,12.39,0,0,0-3.31,1.29A4.66,4.66,0,0,0,169,17.44a7.31,7.31,0,0,0-.77,2.57,35.86,35.86,0,0,0-.22,4.65V60.75a51.37,51.37,0,0,0,.55,7.88,17.6,17.6,0,0,0,2,6.09,9.89,9.89,0,0,0,4,3.91A14.08,14.08,0,0,0,181.14,80q5.58,0,8.31-2.24a12,12,0,0,0,3.86-6.26,47.8,47.8,0,0,0,1.12-12Z"/><path class="cls-1" d="M274.69,10.88v3.6a15.1,15.1,0,0,0-3.11,1.18,4.47,4.47,0,0,0-1.78,1.72A7.29,7.29,0,0,0,269,20.2a40.1,40.1,0,0,0-.19,4.35V79H279.4a11.09,11.09,0,0,0,5.08-1,9,9,0,0,0,3.31-3,20.22,20.22,0,0,0,2.41-5.36q1-3.31,1.61-6.21h7.49l-1.2,22.09H246V81.91a14,14,0,0,0,3.2-1.2,4.17,4.17,0,0,0,1.75-1.78,7.69,7.69,0,0,0,.74-2.84c.11-1.15.17-2.6.17-4.35V24.66c0-1.72-.05-3.16-.14-4.32a7.43,7.43,0,0,0-.71-2.85,4.53,4.53,0,0,0-1.75-1.78A14,14,0,0,0,246,14.48v-3.6Z"/><path class="cls-1" d="M338.34,86.4q-16.06,0-24.14-9.41t-8.07-28.16q0-12.3,3.91-21a28.66,28.66,0,0,1,11.51-13.26Q329.16,10,339.66,10q16.35,0,24.55,9.38t8.2,27.86A57.29,57.29,0,0,1,370,65a32,32,0,0,1-6.92,12.17,27.19,27.19,0,0,1-10.74,7A41.41,41.41,0,0,1,338.34,86.4ZM323.52,47.35q0,16.51,4,24.58T339.6,80a11.44,11.44,0,0,0,7.17-2.27,16.21,16.21,0,0,0,4.78-6.34,36,36,0,0,0,2.63-9.66A88.6,88.6,0,0,0,355,49.48a82,82,0,0,0-1.72-18.23q-1.72-7.37-5.2-11.11a11.6,11.6,0,0,0-8.89-3.74q-7.92,0-11.78,7.57T323.52,47.35Z"/><path class="cls-1" d="M390,67.09q1.37,6.51,4.57,9.71t9.38,3.2a14.61,14.61,0,0,0,5.79-1.09,9,9,0,0,0,4.13-3.53,11.1,11.1,0,0,0,1.56-6.1,12.87,12.87,0,0,0-1.26-5.88,14.77,14.77,0,0,0-4-4.73,45.63,45.63,0,0,0-7.77-4.76,70.63,70.63,0,0,1-7.71-4.43,29.63,29.63,0,0,1-5.88-5,21.34,21.34,0,0,1-3.77-6A19.22,19.22,0,0,1,383.62,31,19.29,19.29,0,0,1,387,19.57a20.54,20.54,0,0,1,9.66-7.14A40.54,40.54,0,0,1,411.23,10a79,79,0,0,1,9.3.52,97,97,0,0,1,10.12,1.83V28.21h-7.49a22.93,22.93,0,0,0-2.66-6.86,10,10,0,0,0-4-3.75,15.37,15.37,0,0,0-11.64-.11A8.88,8.88,0,0,0,401,20.75,9.26,9.26,0,0,0,399.53,26a11.55,11.55,0,0,0,1.23,5.49A14.42,14.42,0,0,0,404.89,36a57.59,57.59,0,0,0,8.42,5.06,54.33,54.33,0,0,1,10.58,6.87,22.06,22.06,0,0,1,5.69,7.32,21.83,21.83,0,0,1,1.83,9.22,21.4,21.4,0,0,1-3.11,11.67,20,20,0,0,1-9.08,7.61,33.77,33.77,0,0,1-13.78,2.65,112,112,0,0,1-11.62-.63,96.89,96.89,0,0,1-11.35-1.83V67.09Z"/><path class="cls-1" d="M494.52,10.88V28.27H487a33,33,0,0,0-3.06-7,9.87,9.87,0,0,0-3-2.9q-1.74-1.07-6-1.07H463.07V43.52h7.22a8.5,8.5,0,0,0,3.77-.68,5.45,5.45,0,0,0,2.27-2.27,20.2,20.2,0,0,0,1.72-4.92h6.18v22.2h-6.18A19.94,19.94,0,0,0,476.36,53a5.92,5.92,0,0,0-2.22-2.38,8.21,8.21,0,0,0-3.85-.71h-7.22V79.13h11.87a18.14,18.14,0,0,0,3.22-.25,7.61,7.61,0,0,0,2.36-.85,8.7,8.7,0,0,0,2-1.64,14.84,14.84,0,0,0,1.7-2.24A24.06,24.06,0,0,0,485.77,71a54.89,54.89,0,0,0,1.8-5.42h7.49l-1,20H440.27V81.91a15.3,15.3,0,0,0,3.19-1.17A4,4,0,0,0,445.21,79a7.8,7.8,0,0,0,.74-2.85c.11-1.14.17-2.59.17-4.34V24.66c0-1.72-.05-3.16-.14-4.32a7.43,7.43,0,0,0-.71-2.85,4.46,4.46,0,0,0-1.75-1.78,13.89,13.89,0,0,0-3.25-1.23v-3.6Z"/><path class="cls-1" d="M527.65,10.88l-5,50.25h-9.19l-4.32-50.25ZM525.46,69V85.52H510.75V69Z"/><path class="cls-2" d="M45.74,48.81v15a43.25,43.25,0,0,0,.17,4.4,7.83,7.83,0,0,0,.6,2.43,4.79,4.79,0,0,0,1.06,1.51,6.17,6.17,0,0,0,1.75,1,12.9,12.9,0,0,0,3,.73v3.61H22.17V73.91a14.89,14.89,0,0,0,3.58-1,4.16,4.16,0,0,0,2-1.75,7.51,7.51,0,0,0,.85-2.93,42.14,42.14,0,0,0,.19-4.45v-15L14,17.53q-1.92-4-3-5.9A18,18,0,0,0,8.8,8.4,6.14,6.14,0,0,0,7.13,7,6.79,6.79,0,0,0,5,6.48V2.88H34.15v3.6c-2.81.37-4.21,1.75-4.21,4.16A10.73,10.73,0,0,0,30.62,14c.46,1.31,1.19,3.06,2.22,5.25l9.24,20.56,10-20.07a33,33,0,0,0,2-5,14.38,14.38,0,0,0,.57-4,4.17,4.17,0,0,0-1.12-3.09,4.7,4.7,0,0,0-3.14-1.23V2.88H72.38v3.6a8,8,0,0,0-2.44.91,9.91,9.91,0,0,0-2.1,1.8,27,27,0,0,0-2.74,3.69c-1.06,1.64-2.28,3.78-3.66,6.4Z"/><path class="cls-2" d="M104.47,78.4Q88.39,78.4,80.32,69T72.26,40.83q0-12.3,3.91-21A28.55,28.55,0,0,1,87.68,6.54Q95.29,2,105.78,2q16.35,0,24.56,9.38t8.2,27.86A57.29,57.29,0,0,1,136.11,57a32.15,32.15,0,0,1-6.92,12.17,27.16,27.16,0,0,1-10.75,7A41.31,41.31,0,0,1,104.47,78.4ZM89.65,39.35q0,16.51,4,24.58T105.73,72a11.43,11.43,0,0,0,7.16-2.27,16.23,16.23,0,0,0,4.79-6.34,36,36,0,0,0,2.62-9.66,87.07,87.07,0,0,0,.79-12.25,81.42,81.42,0,0,0-1.72-18.23q-1.73-7.36-5.19-11.11a11.61,11.61,0,0,0-8.89-3.74Q97.35,8.4,93.5,16T89.65,39.35Z"/><path class="cls-2" d="M197.43,16.6a30.32,30.32,0,0,0-.36-5.71,4.91,4.91,0,0,0-1.39-2.6,10,10,0,0,0-4.05-1.81V2.88H215.7v3.6a15,15,0,0,0-3.12,1.18,4.22,4.22,0,0,0-1.75,1.75,7.58,7.58,0,0,0-.77,2.84c-.11,1.15-.16,2.6-.16,4.35V50.78a49.66,49.66,0,0,1-1.1,11.35,20.81,20.81,0,0,1-3.39,7.68,17.7,17.7,0,0,1-5.71,5A25.46,25.46,0,0,1,192,77.58a50.73,50.73,0,0,1-9.57.82,46.29,46.29,0,0,1-13.13-1.61,21,21,0,0,1-8.72-4.87,20,20,0,0,1-5-7.9A37.4,37.4,0,0,1,154,52V16.66c0-1.72,0-3.16-.14-4.32a7.43,7.43,0,0,0-.71-2.85,4.46,4.46,0,0,0-1.75-1.78,13.89,13.89,0,0,0-3.25-1.23V2.88h28.71v3.6a12.39,12.39,0,0,0-3.31,1.29A4.66,4.66,0,0,0,172,9.44a7.31,7.31,0,0,0-.77,2.57,35.86,35.86,0,0,0-.22,4.65V52.75a51.37,51.37,0,0,0,.55,7.88,17.6,17.6,0,0,0,2,6.09,9.89,9.89,0,0,0,4,3.91A14.08,14.08,0,0,0,184.14,72q5.58,0,8.31-2.24a12,12,0,0,0,3.86-6.26,47.8,47.8,0,0,0,1.12-12Z"/><path class="cls-2" d="M277.69,2.88v3.6a15.1,15.1,0,0,0-3.11,1.18,4.47,4.47,0,0,0-1.78,1.72A7.29,7.29,0,0,0,272,12.2a40.1,40.1,0,0,0-.19,4.35V71H282.4a11.09,11.09,0,0,0,5.08-1,9,9,0,0,0,3.31-3,20.22,20.22,0,0,0,2.41-5.36q1-3.31,1.61-6.21h7.49l-1.2,22.09H249V73.91a14,14,0,0,0,3.2-1.2,4.17,4.17,0,0,0,1.75-1.78,7.69,7.69,0,0,0,.74-2.84c.11-1.15.17-2.6.17-4.35V16.66c0-1.72-.05-3.16-.14-4.32A7.43,7.43,0,0,0,254,9.49a4.53,4.53,0,0,0-1.75-1.78A14,14,0,0,0,249,6.48V2.88Z"/><path class="cls-2" d="M341.34,78.4q-16.06,0-24.14-9.41t-8.07-28.16q0-12.3,3.91-21A28.66,28.66,0,0,1,324.55,6.54Q332.16,2,342.66,2,359,2,367.21,11.38t8.2,27.86A57.29,57.29,0,0,1,373,57a32,32,0,0,1-6.92,12.17,27.19,27.19,0,0,1-10.74,7A41.41,41.41,0,0,1,341.34,78.4ZM326.52,39.35q0,16.51,4,24.58T342.6,72a11.44,11.44,0,0,0,7.17-2.27,16.21,16.21,0,0,0,4.78-6.34,36,36,0,0,0,2.63-9.66A88.6,88.6,0,0,0,358,41.48a82,82,0,0,0-1.72-18.23q-1.72-7.36-5.2-11.11a11.6,11.6,0,0,0-8.89-3.74q-7.92,0-11.78,7.57T326.52,39.35Z"/><path class="cls-2" d="M393,59.09q1.37,6.51,4.57,9.71t9.38,3.2a14.61,14.61,0,0,0,5.79-1.09,9,9,0,0,0,4.13-3.53,11.1,11.1,0,0,0,1.56-6.1,12.87,12.87,0,0,0-1.26-5.88,14.77,14.77,0,0,0-4-4.73,45.63,45.63,0,0,0-7.77-4.76,70.63,70.63,0,0,1-7.71-4.43,29.63,29.63,0,0,1-5.88-5A21.34,21.34,0,0,1,388,30.38,19.22,19.22,0,0,1,386.62,23,19.29,19.29,0,0,1,390,11.57a20.54,20.54,0,0,1,9.66-7.14A40.54,40.54,0,0,1,414.23,2a79,79,0,0,1,9.3.52,97,97,0,0,1,10.12,1.83V20.21h-7.49a22.93,22.93,0,0,0-2.66-6.86,10,10,0,0,0-4-3.75,15.37,15.37,0,0,0-11.64-.11A8.88,8.88,0,0,0,404,12.75,9.26,9.26,0,0,0,402.53,18a11.55,11.55,0,0,0,1.23,5.49A14.42,14.42,0,0,0,407.89,28a57.59,57.59,0,0,0,8.42,5.06,54.33,54.33,0,0,1,10.58,6.87,22.06,22.06,0,0,1,5.69,7.32,21.83,21.83,0,0,1,1.83,9.22,21.4,21.4,0,0,1-3.11,11.67,20,20,0,0,1-9.08,7.61,33.77,33.77,0,0,1-13.78,2.65,112,112,0,0,1-11.62-.63,96.89,96.89,0,0,1-11.35-1.83V59.09Z"/><path class="cls-2" d="M497.52,2.88V20.27H490a33,33,0,0,0-3.06-7,9.87,9.87,0,0,0-3-2.9q-1.74-1.06-6-1.07H466.07V35.52h7.22a8.5,8.5,0,0,0,3.77-.68,5.45,5.45,0,0,0,2.27-2.27,20.2,20.2,0,0,0,1.72-4.92h6.18v22.2h-6.18A19.94,19.94,0,0,0,479.36,45a5.92,5.92,0,0,0-2.22-2.38,8.21,8.21,0,0,0-3.85-.71h-7.22V71.13h11.87a18.14,18.14,0,0,0,3.22-.25,7.61,7.61,0,0,0,2.36-.85,8.7,8.7,0,0,0,2-1.64,14.84,14.84,0,0,0,1.7-2.24A24.06,24.06,0,0,0,488.77,63a54.89,54.89,0,0,0,1.8-5.42h7.49l-1,20H443.27V73.91a15.3,15.3,0,0,0,3.19-1.17A4,4,0,0,0,448.21,71a7.8,7.8,0,0,0,.74-2.85c.11-1.14.17-2.59.17-4.34V16.66c0-1.72-.05-3.16-.14-4.32a7.43,7.43,0,0,0-.71-2.85,4.46,4.46,0,0,0-1.75-1.78,13.89,13.89,0,0,0-3.25-1.23V2.88Z"/><path class="cls-2" d="M530.65,2.88l-5,50.25h-9.19L512.16,2.88ZM528.46,61V77.52H513.75V61Z"/></g></g></g></svg>