<svg xmlns="http://www.w3.org/2000/svg" viewBox="0 0 534.8 1313.01"><defs><style>.cls-1{fill:#e6e6e6;}.cls-2{fill:red;}.cls-3,.cls-4{fill:none;}.cls-3{stroke:red;stroke-width:37px;}.cls-3,.cls-4,.cls-5,.cls-6{stroke-miterlimit:10;}.cls-4,.cls-6{stroke:#fff;}.cls-4{stroke-width:20px;}.cls-5{stroke:#000;}.cls-5,.cls-6{stroke-width:4px;}.cls-6{fill:#fff;}</style></defs><g id="Layer_2" data-name="Layer 2"><g id="Lose_UI" data-name="Lose UI"><g id="StopSign"><rect class="cls-1" x="246.61" y="513.35" width="33.7" height="799.66"/><polygon class="cls-2" points="370.5 18.5 164.3 18.5 18.5 164.3 18.5 370.5 164.3 516.3 370.5 516.3 516.3 370.5 516.3 164.3 370.5 18.5"/><polygon class="cls-3" points="370.5 18.5 164.3 18.5 18.5 164.3 18.5 370.5 164.3 516.3 370.5 516.3 516.3 370.5 516.3 164.3 370.5 18.5"/><polygon class="cls-4" points="370.5 18.5 164.3 18.5 18.5 164.3 18.5 370.5 164.3 516.3 370.5 516.3 516.3 370.5 516.3 164.3 370.5 18.5"/></g><g id="LoseWriting"><path class="cls-5" d="M198.24,199.5v15a43.87,43.87,0,0,0,.16,4.4,7.83,7.83,0,0,0,.6,2.43,4.81,4.81,0,0,0,1.07,1.51,6,6,0,0,0,1.75,1,12.87,12.87,0,0,0,3,.74v3.61H174.67V224.6a15,15,0,0,0,3.58-1,4.25,4.25,0,0,0,2-1.75,7.52,7.52,0,0,0,.84-2.93,42.14,42.14,0,0,0,.19-4.45v-15l-14.82-31.28q-1.91-4-3-5.91a18.23,18.23,0,0,0-2.16-3.22,6.1,6.1,0,0,0-1.67-1.37,6.53,6.53,0,0,0-2.13-.55v-3.61h29.14v3.61c-2.8.37-4.21,1.75-4.21,4.16a10.5,10.5,0,0,0,.69,3.39q.67,2,2.21,5.25l9.24,20.56,10-20.07a31,31,0,0,0,2-5,14,14,0,0,0,.58-4,4.21,4.21,0,0,0-1.12-3.09,4.71,4.71,0,0,0-3.15-1.23v-3.61h21.93v3.61a8,8,0,0,0-2.43.91,10.18,10.18,0,0,0-2.11,1.8,27.13,27.13,0,0,0-2.73,3.69Q216,166,213.93,170Z"/><path class="cls-5" d="M257,229.09q-16.06,0-24.14-9.41t-8.07-28.16q0-12.32,3.91-21a28.53,28.53,0,0,1,11.52-13.26q7.59-4.54,18.1-4.54,16.35,0,24.55,9.38t8.2,27.86a57.29,57.29,0,0,1-2.43,17.75,31.9,31.9,0,0,1-6.92,12.16,27,27,0,0,1-10.74,7A41.16,41.16,0,0,1,257,229.09ZM242.14,190q0,16.52,4,24.58t12.11,8.07a11.44,11.44,0,0,0,7.17-2.27,16.21,16.21,0,0,0,4.78-6.34,36,36,0,0,0,2.63-9.66,88.71,88.71,0,0,0,.79-12.25,81.57,81.57,0,0,0-1.72-18.24q-1.72-7.35-5.2-11.1a11.6,11.6,0,0,0-8.89-3.74q-7.92,0-11.78,7.57T242.14,190Z"/><path class="cls-5" d="M349.93,167.29a30.32,30.32,0,0,0-.36-5.71,4.94,4.94,0,0,0-1.39-2.6,10.14,10.14,0,0,0-4.05-1.81v-3.61h24.06v3.61a15.46,15.46,0,0,0-3.12,1.18,4.28,4.28,0,0,0-1.75,1.75,7.54,7.54,0,0,0-.76,2.84c-.11,1.15-.17,2.6-.17,4.35v34.18a49.72,49.72,0,0,1-1.09,11.35,21.14,21.14,0,0,1-3.39,7.68,17.73,17.73,0,0,1-5.72,5,25.36,25.36,0,0,1-7.68,2.74,51.42,51.42,0,0,1-9.57.82,45.82,45.82,0,0,1-13.12-1.62,21,21,0,0,1-8.73-4.86,19.86,19.86,0,0,1-5-7.91,37,37,0,0,1-1.62-12V167.34c0-1.71,0-3.15-.13-4.32a7.61,7.61,0,0,0-.71-2.84,4.53,4.53,0,0,0-1.75-1.78,14,14,0,0,0-3.26-1.23v-3.61h28.71v3.61a12.33,12.33,0,0,0-3.31,1.29,4.66,4.66,0,0,0-1.61,1.67,7.32,7.32,0,0,0-.76,2.57,35.68,35.68,0,0,0-.22,4.64v36.1a52.6,52.6,0,0,0,.54,7.87,17.66,17.66,0,0,0,2,6.1,9.89,9.89,0,0,0,4,3.91,14.06,14.06,0,0,0,6.62,1.37c3.71,0,6.49-.75,8.31-2.24a12,12,0,0,0,3.85-6.27,47.67,47.67,0,0,0,1.13-12Z"/><path class="cls-5" d="M150.28,288v3.61a15.1,15.1,0,0,0-3.11,1.18,4.47,4.47,0,0,0-1.78,1.72,7.29,7.29,0,0,0-.82,2.82,40.1,40.1,0,0,0-.19,4.35V356.1H155a11.09,11.09,0,0,0,5.08-1,9,9,0,0,0,3.31-3,19.93,19.93,0,0,0,2.41-5.36q1-3.3,1.61-6.2h7.49l-1.2,22.09H121.57V359a14,14,0,0,0,3.2-1.2,4.17,4.17,0,0,0,1.75-1.78,7.74,7.74,0,0,0,.74-2.84c.11-1.15.17-2.6.17-4.35V301.74c0-1.71-.05-3.15-.14-4.32a7.42,7.42,0,0,0-.71-2.84,4.53,4.53,0,0,0-1.75-1.78,14,14,0,0,0-3.26-1.23V288Z"/><path class="cls-5" d="M213.93,363.49q-16.08,0-24.14-9.41t-8.07-28.16q0-12.32,3.91-21a28.56,28.56,0,0,1,11.51-13.26q7.61-4.54,18.11-4.54,16.35,0,24.55,9.38t8.2,27.86a57.29,57.29,0,0,1-2.43,17.75,31.9,31.9,0,0,1-6.92,12.16,27,27,0,0,1-10.74,7A41.16,41.16,0,0,1,213.93,363.49Zm-14.82-39.05q0,16.51,4,24.58t12.11,8.07a11.39,11.39,0,0,0,7.16-2.27,16.1,16.1,0,0,0,4.79-6.35,35.86,35.86,0,0,0,2.63-9.65,88.71,88.71,0,0,0,.79-12.25,82.17,82.17,0,0,0-1.72-18.24q-1.72-7.35-5.2-11.1a11.61,11.61,0,0,0-8.89-3.74q-7.92,0-11.78,7.57T199.11,324.44Z"/><path class="cls-5" d="M265.55,344.18q1.36,6.51,4.57,9.71t9.38,3.2a14.62,14.62,0,0,0,5.79-1.1,8.93,8.93,0,0,0,4.13-3.52,11.1,11.1,0,0,0,1.56-6.1,12.87,12.87,0,0,0-1.26-5.88,14.9,14.9,0,0,0-4-4.73,45.63,45.63,0,0,0-7.77-4.76,72.31,72.31,0,0,1-7.71-4.43,29.34,29.34,0,0,1-5.88-5.06,21.15,21.15,0,0,1-3.77-6,21.17,21.17,0,0,1,2-18.81,20.43,20.43,0,0,1,9.65-7.14,40.64,40.64,0,0,1,14.63-2.43,79,79,0,0,1,9.3.52,92,92,0,0,1,10.12,1.83V305.3h-7.49a22.93,22.93,0,0,0-2.66-6.86,10,10,0,0,0-4-3.75,15.37,15.37,0,0,0-11.64-.11,8.8,8.8,0,0,0-3.89,3.25,9.3,9.3,0,0,0-1.42,5.23,11.58,11.58,0,0,0,1.23,5.49,14.42,14.42,0,0,0,4.13,4.54,57.59,57.59,0,0,0,8.42,5.06A54.34,54.34,0,0,1,299.48,325a22.19,22.19,0,0,1,5.69,7.33,21.83,21.83,0,0,1,1.83,9.22,21.51,21.51,0,0,1-3.11,11.67,20,20,0,0,1-9.08,7.6A33.61,33.61,0,0,1,281,363.49a112,112,0,0,1-11.62-.63A96.89,96.89,0,0,1,258.06,361V344.18Z"/><path class="cls-5" d="M370.1,288v17.39h-7.49a33.11,33.11,0,0,0-3.06-7,9.87,9.87,0,0,0-3-2.9q-1.74-1.06-6-1.07H338.66v26.25h7.22a8.64,8.64,0,0,0,3.77-.68,5.45,5.45,0,0,0,2.27-2.27,20.2,20.2,0,0,0,1.72-4.92h6.18v22.2h-6.18A19.94,19.94,0,0,0,352,330.1a5.92,5.92,0,0,0-2.22-2.38,8.21,8.21,0,0,0-3.85-.71h-7.22v29.2h11.87a18.25,18.25,0,0,0,3.22-.24,7.46,7.46,0,0,0,2.35-.85,8.54,8.54,0,0,0,2-1.64,14.84,14.84,0,0,0,1.7-2.24,23.16,23.16,0,0,0,1.55-3.18,50.9,50.9,0,0,0,1.81-5.41h7.49l-1,20H315.85V359a15.2,15.2,0,0,0,3.2-1.17,4.05,4.05,0,0,0,1.75-1.75,7.8,7.8,0,0,0,.74-2.85c.11-1.15.17-2.59.17-4.34V301.74c0-1.71,0-3.15-.14-4.32a7.42,7.42,0,0,0-.71-2.84,4.46,4.46,0,0,0-1.75-1.78,14,14,0,0,0-3.26-1.23V288Z"/><path class="cls-5" d="M403.24,288l-5,50.26h-9.19L384.75,288Zm-2.19,58.14v16.51H386.34V346.1Z"/><path class="cls-6" d="M201.24,191.5v15a43.87,43.87,0,0,0,.16,4.4,7.83,7.83,0,0,0,.6,2.43,4.81,4.81,0,0,0,1.07,1.51,6,6,0,0,0,1.75,1,12.87,12.87,0,0,0,3,.74v3.61H177.67V216.6a15,15,0,0,0,3.58-1,4.25,4.25,0,0,0,2-1.75,7.52,7.52,0,0,0,.84-2.93,42.14,42.14,0,0,0,.19-4.45v-15l-14.82-31.28q-1.91-4-3-5.91a18.23,18.23,0,0,0-2.16-3.22,6.1,6.1,0,0,0-1.67-1.37,6.53,6.53,0,0,0-2.13-.55v-3.61h29.14v3.61c-2.8.37-4.21,1.75-4.21,4.16a10.5,10.5,0,0,0,.69,3.39q.67,2,2.21,5.25l9.24,20.56,10-20.07a31,31,0,0,0,2-5,14,14,0,0,0,.58-4,4.21,4.21,0,0,0-1.12-3.09,4.71,4.71,0,0,0-3.15-1.23v-3.61h21.93v3.61a8,8,0,0,0-2.43.91,10.18,10.18,0,0,0-2.11,1.8,27.13,27.13,0,0,0-2.73,3.69Q219,158,216.93,162Z"/><path class="cls-6" d="M260,221.09q-16.06,0-24.14-9.41t-8.07-28.16q0-12.32,3.91-21a28.53,28.53,0,0,1,11.52-13.26q7.59-4.54,18.1-4.54,16.35,0,24.55,9.38t8.2,27.86a57.29,57.29,0,0,1-2.43,17.75,31.9,31.9,0,0,1-6.92,12.16,27,27,0,0,1-10.74,7A41.16,41.16,0,0,1,260,221.09ZM245.14,182q0,16.52,4,24.58t12.11,8.07a11.44,11.44,0,0,0,7.17-2.27,16.21,16.21,0,0,0,4.78-6.34,36,36,0,0,0,2.63-9.66,88.71,88.71,0,0,0,.79-12.25,81.57,81.57,0,0,0-1.72-18.24q-1.72-7.35-5.2-11.1a11.6,11.6,0,0,0-8.89-3.74q-7.92,0-11.78,7.57T245.14,182Z"/><path class="cls-6" d="M352.93,159.29a30.32,30.32,0,0,0-.36-5.71,4.94,4.94,0,0,0-1.39-2.6,10.14,10.14,0,0,0-4.05-1.81v-3.61h24.06v3.61a15.46,15.46,0,0,0-3.12,1.18,4.28,4.28,0,0,0-1.75,1.75,7.54,7.54,0,0,0-.76,2.84c-.11,1.15-.17,2.6-.17,4.35v34.18a49.72,49.72,0,0,1-1.09,11.35,21.14,21.14,0,0,1-3.39,7.68,17.73,17.73,0,0,1-5.72,5,25.36,25.36,0,0,1-7.68,2.74,51.42,51.42,0,0,1-9.57.82,45.82,45.82,0,0,1-13.12-1.62,21,21,0,0,1-8.73-4.86,19.86,19.86,0,0,1-5-7.91,37,37,0,0,1-1.62-12V159.34c0-1.71,0-3.15-.13-4.32a7.61,7.61,0,0,0-.71-2.84,4.53,4.53,0,0,0-1.75-1.78,14,14,0,0,0-3.26-1.23v-3.61h28.71v3.61a12.33,12.33,0,0,0-3.31,1.29,4.66,4.66,0,0,0-1.61,1.67,7.32,7.32,0,0,0-.76,2.57,35.68,35.68,0,0,0-.22,4.64v36.1a52.6,52.6,0,0,0,.54,7.87,17.66,17.66,0,0,0,2,6.1,9.89,9.89,0,0,0,4,3.91,14.06,14.06,0,0,0,6.62,1.37c3.71,0,6.49-.75,8.31-2.24a12,12,0,0,0,3.85-6.27,47.67,47.67,0,0,0,1.13-12Z"/><path class="cls-6" d="M153.28,280v3.61a15.1,15.1,0,0,0-3.11,1.18,4.47,4.47,0,0,0-1.78,1.72,7.29,7.29,0,0,0-.82,2.82,40.1,40.1,0,0,0-.19,4.35V348.1H158a11.09,11.09,0,0,0,5.08-1,9,9,0,0,0,3.31-3,19.93,19.93,0,0,0,2.41-5.36q1-3.3,1.61-6.2h7.49l-1.2,22.09H124.57V351a14,14,0,0,0,3.2-1.2,4.17,4.17,0,0,0,1.75-1.78,7.74,7.74,0,0,0,.74-2.84c.11-1.15.17-2.6.17-4.35V293.74c0-1.71-.05-3.15-.14-4.32a7.42,7.42,0,0,0-.71-2.84,4.53,4.53,0,0,0-1.75-1.78,14,14,0,0,0-3.26-1.23V280Z"/><path class="cls-6" d="M216.93,355.49q-16.08,0-24.14-9.41t-8.07-28.16q0-12.32,3.91-21a28.56,28.56,0,0,1,11.51-13.26q7.61-4.54,18.11-4.54,16.35,0,24.55,9.38t8.2,27.86a57.29,57.29,0,0,1-2.43,17.75,31.9,31.9,0,0,1-6.92,12.16,27,27,0,0,1-10.74,7A41.16,41.16,0,0,1,216.93,355.49Zm-14.82-39.05q0,16.51,4,24.58t12.11,8.07a11.39,11.39,0,0,0,7.16-2.27,16.1,16.1,0,0,0,4.79-6.35,35.86,35.86,0,0,0,2.63-9.65,88.71,88.71,0,0,0,.79-12.25,82.17,82.17,0,0,0-1.72-18.24q-1.72-7.35-5.2-11.1a11.61,11.61,0,0,0-8.89-3.74q-7.92,0-11.78,7.57T202.11,316.44Z"/><path class="cls-6" d="M268.55,336.18q1.36,6.51,4.57,9.71t9.38,3.2a14.62,14.62,0,0,0,5.79-1.1,8.93,8.93,0,0,0,4.13-3.52,11.1,11.1,0,0,0,1.56-6.1,12.87,12.87,0,0,0-1.26-5.88,14.9,14.9,0,0,0-4-4.73,45.63,45.63,0,0,0-7.77-4.76,72.31,72.31,0,0,1-7.71-4.43,29.34,29.34,0,0,1-5.88-5.06,21.15,21.15,0,0,1-3.77-6,21.17,21.17,0,0,1,2-18.81,20.43,20.43,0,0,1,9.65-7.14,40.64,40.64,0,0,1,14.63-2.43,79,79,0,0,1,9.3.52,92,92,0,0,1,10.12,1.83V297.3h-7.49a22.93,22.93,0,0,0-2.66-6.86,10,10,0,0,0-4-3.75,15.37,15.37,0,0,0-11.64-.11,8.8,8.8,0,0,0-3.89,3.25,9.3,9.3,0,0,0-1.42,5.23,11.58,11.58,0,0,0,1.23,5.49,14.42,14.42,0,0,0,4.13,4.54,57.59,57.59,0,0,0,8.42,5.06A54.34,54.34,0,0,1,302.48,317a22.19,22.19,0,0,1,5.69,7.33,21.83,21.83,0,0,1,1.83,9.22,21.51,21.51,0,0,1-3.11,11.67,20,20,0,0,1-9.08,7.6A33.61,33.61,0,0,1,284,355.49a112,112,0,0,1-11.62-.63A96.89,96.89,0,0,1,261.06,353V336.18Z"/><path class="cls-6" d="M373.1,280v17.39h-7.49a33.11,33.11,0,0,0-3.06-7,9.87,9.87,0,0,0-3-2.9q-1.74-1.06-6-1.07H341.66v26.25h7.22a8.64,8.64,0,0,0,3.77-.68,5.45,5.45,0,0,0,2.27-2.27,20.2,20.2,0,0,0,1.72-4.92h6.18v22.2h-6.18A19.94,19.94,0,0,0,355,322.1a5.92,5.92,0,0,0-2.22-2.38,8.21,8.21,0,0,0-3.85-.71h-7.22v29.2h11.87a18.25,18.25,0,0,0,3.22-.24,7.46,7.46,0,0,0,2.35-.85,8.54,8.54,0,0,0,2-1.64,14.84,14.84,0,0,0,1.7-2.24,23.16,23.16,0,0,0,1.55-3.18,50.9,50.9,0,0,0,1.81-5.41h7.49l-1,20H318.85V351a15.2,15.2,0,0,0,3.2-1.17,4.05,4.05,0,0,0,1.75-1.75,7.8,7.8,0,0,0,.74-2.85c.11-1.15.17-2.59.17-4.34V293.74c0-1.71,0-3.15-.14-4.32a7.42,7.42,0,0,0-.71-2.84,4.46,4.46,0,0,0-1.75-1.78,14,14,0,0,0-3.26-1.23V280Z"/><path class="cls-6" d="M406.24,280l-5,50.26h-9.19L387.75,280Zm-2.19,58.14v16.51H389.34V338.1Z"/></g></g></g></svg>